<?xml version="1.0" encoding="UTF-8"?> <svg xmlns="http://www.w3.org/2000/svg" width="40" height="28" viewBox="0 0 40 28" fill="none"> <path d="M11.9673 2C12.9115 2 13.9064 2.16866 14.5352 2.873C14.8401 3.21445 15.0849 3.61178 15.2512 4.05241L23.5295 26H18.5503L11.4811 7.13236L9.55809 12.2649L8.88575 14.0593H4L5.47539 9.97964L7.71106 4.05241C7.87727 3.61178 8.12212 3.21445 8.42699 2.873C9.05586 2.16866 10.0507 2 10.9949 2H11.9673Z" fill="#14134F"></path> <path d="M28.0327 26C27.0885 26 26.0936 25.8313 25.4648 25.127C25.1599 24.7855 24.9151 24.3882 24.7488 23.9476L16.4705 2L21.4497 2L28.5189 20.8676L30.4419 15.7351L31.1142 13.9407L36 13.9407L34.5246 18.0204L32.2889 23.9476C32.1227 24.3882 31.8779 24.7855 31.573 25.127C30.9441 25.8313 29.9493 26 29.0051 26L28.0327 26Z" fill="#14134F"></path> </svg> 