<?xml version="1.0" encoding="UTF-8"?> <svg xmlns="http://www.w3.org/2000/svg" width="28" height="28" viewBox="0 0 28 28" fill="none"> <path d="M14.1801 2.00774C12.596 1.95022 11.0167 2.21372 9.53714 2.78239C8.05757 3.35106 6.70831 4.21314 5.57055 5.31677C4.43278 6.42041 3.53001 7.74278 2.91656 9.20436C2.3031 10.6659 1.99163 12.2365 2.00089 13.8216C1.98048 15.4672 2.311 17.0982 2.97042 18.6061C3.62985 20.114 4.60304 21.464 5.82516 22.5662C5.92218 22.6526 6.00118 22.7574 6.05761 22.8744C6.11405 22.9915 6.1468 23.1185 6.15399 23.2482V25.4161C6.16067 25.576 6.2061 25.7317 6.28638 25.8701C6.36666 26.0084 6.47937 26.1252 6.61481 26.2103C6.75024 26.2954 6.90434 26.3463 7.06381 26.3586C7.22329 26.3709 7.38336 26.3442 7.53024 26.2809L9.96608 25.2213C10.1741 25.1427 10.4036 25.1427 10.6116 25.2213C11.7631 25.5321 12.9509 25.6877 14.1435 25.6841C17.2832 25.6889 20.2962 24.4463 22.5197 22.2297C24.7433 20.013 25.9951 17.0039 26 13.8642C26.0048 10.7245 24.7622 7.71149 22.5456 5.48798C20.3289 3.26446 17.3198 2.01259 14.1801 2.00774V2.00774ZM21.4876 11.0934L17.9191 16.7689C17.7845 16.9826 17.6071 17.1661 17.398 17.3077C17.189 17.4494 16.9528 17.5461 16.7045 17.5919C16.4561 17.6377 16.201 17.6315 15.9551 17.5737C15.7093 17.5159 15.4781 17.4077 15.2762 17.2561L12.4263 15.1247C12.2998 15.0299 12.1459 14.9786 11.9878 14.9786C11.8297 14.9786 11.6759 15.0299 11.5494 15.1247L7.70075 18.0477C7.59357 18.1304 7.46056 18.1724 7.32534 18.1663C7.19012 18.1602 7.06144 18.1064 6.96214 18.0144C6.86285 17.9224 6.79937 17.7982 6.78297 17.6638C6.76657 17.5294 6.79831 17.3936 6.87257 17.2804L10.4411 11.6049C10.5757 11.3913 10.7531 11.2078 10.9621 11.0662C11.1712 10.9245 11.4074 10.8277 11.6557 10.782C11.9041 10.7362 12.1592 10.7424 12.405 10.8002C12.6509 10.858 12.882 10.9661 13.084 11.1178L15.9339 13.2491C16.0604 13.344 16.2142 13.3953 16.3723 13.3953C16.5304 13.3953 16.6843 13.344 16.8108 13.2491L20.6594 10.3261C20.7666 10.2435 20.8996 10.2015 21.0348 10.2076C21.17 10.2137 21.2987 10.2675 21.398 10.3595C21.4973 10.4515 21.5608 10.5757 21.5772 10.7101C21.5936 10.8444 21.5618 10.9802 21.4876 11.0934Z" fill="black"></path> </svg> 