<?xml version="1.0" encoding="UTF-8"?> <svg xmlns="http://www.w3.org/2000/svg" width="50" height="50" viewBox="0 0 50 50" fill="none"> <path d="M14.1621 4.94067H32.2871C36.8468 8.17001 40.8225 12.1531 44.0434 16.7188V44.5969H14.1621V4.94067Z" fill="url(#paint0_linear_210_1618)"></path> <path d="M14.1621 4.94067H32.2871C36.8468 8.17001 40.8225 12.1531 44.0434 16.7188V44.5969H14.1621V4.94067Z" stroke="#C8C8C8" stroke-width="0.5"></path> <path d="M32.2842 4.94067C36.8382 8.17779 40.8137 12.1597 44.0436 16.7188C42.9697 15.6152 41.6677 14.7595 40.2287 14.2116C38.7896 13.6637 37.2482 13.4369 35.7123 13.5469C35.9313 11.9386 35.7308 10.3009 35.1301 8.79295C34.5294 7.28498 33.5491 5.95794 32.2842 4.94067Z" fill="url(#paint1_linear_210_1618)"></path> <path d="M32.2842 4.94067C36.8382 8.17779 40.8137 12.1597 44.0436 16.7188C42.9697 15.6152 41.6677 14.7595 40.2287 14.2116C38.7896 13.6637 37.2482 13.4369 35.7123 13.5469C35.9313 11.9386 35.7308 10.3009 35.1301 8.79295C34.5294 7.28498 33.5491 5.95794 32.2842 4.94067V4.94067Z" stroke="#C8C8C8" stroke-width="0.5"></path> <path d="M8.3418 10.15H30.373V14.3688H8.3418V10.15Z" stroke="#C8C8C8" stroke-width="4"></path> <path d="M24.7173 31.0235C25.4454 29.5954 26.2798 27.9875 26.936 26.3719L27.1985 25.7344C26.3329 22.4407 25.8141 19.7969 26.2782 18.0875C26.3755 17.8574 26.5434 17.664 26.7577 17.5354C26.9719 17.4068 27.2215 17.3496 27.4704 17.3719H27.8673C28.6235 17.361 28.9782 18.3219 29.0188 18.6954C29.0246 19.2613 28.9504 19.8252 28.7985 20.3704C28.8357 19.7908 28.7499 19.2098 28.547 18.6657C28.2345 17.9797 27.936 17.5719 27.6688 17.5047C27.5737 17.5817 27.4965 17.6785 27.4426 17.7883C27.3886 17.8981 27.3592 18.0184 27.3563 18.1407C27.277 18.6257 27.2368 19.1164 27.236 19.6079C27.2729 21.0528 27.5004 22.4865 27.9126 23.8719C27.997 23.6282 28.0688 23.3938 28.1313 23.1735C28.2235 22.8266 28.8079 20.5313 28.8079 20.5313C28.8079 20.5313 28.661 23.5875 28.4548 24.511C28.411 24.7063 28.3626 24.9 28.311 25.0969C29.0028 27.0806 30.1508 28.874 31.6626 30.3329C32.2564 30.8479 32.9063 31.2945 33.6001 31.6641C34.9018 31.4678 36.2164 31.3691 37.5329 31.3688C38.5888 31.2623 39.6509 31.4996 40.561 32.0454C40.7616 32.2477 40.8801 32.5171 40.8938 32.8016C40.887 32.9502 40.8656 33.0978 40.8298 33.2422C40.8454 33.1625 40.8454 32.7735 39.6501 32.3891C38.0589 32.0864 36.4272 32.0637 34.8282 32.3219C37.2751 33.5188 39.661 34.1141 40.4157 33.7579C40.575 33.6514 40.7137 33.5169 40.8251 33.361C40.7726 33.6196 40.6963 33.8728 40.597 34.1172C40.4463 34.3085 40.2408 34.4492 40.0079 34.5204C38.8141 34.8329 35.7079 34.1016 33.0001 32.5547C29.943 33.024 26.9289 33.7404 23.9876 34.6969C21.3704 39.2844 19.4016 41.3907 17.8016 40.5891L17.2126 40.2938C17.1052 40.2072 17.0266 40.09 16.9873 39.9577C16.9479 39.8255 16.9497 39.6844 16.9923 39.5532C17.1782 38.6407 18.3235 37.2641 20.6235 35.8907C20.8704 35.7344 21.9735 35.1579 21.9735 35.1579C21.9735 35.1579 21.1563 35.9485 20.9657 36.1032C19.1298 37.6079 17.7751 39.5 17.8079 40.2344V40.2985C19.3704 40.0766 21.7063 36.9016 24.7126 31.0188L24.7173 31.0235ZM25.6657 31.5063C25.1942 32.3883 24.7119 33.2644 24.2188 34.1344C26.7254 33.1299 29.331 32.3925 31.9923 31.9344C31.6485 31.698 31.3163 31.4451 30.997 31.1766C29.6247 29.9931 28.5082 28.5422 27.7157 26.9125C27.1362 28.4893 26.4486 30.0242 25.6579 31.5063" fill="#F91D0A"></path> <path d="M5.85938 7.76245H32.8344V16.8296H5.85938V7.76245Z" fill="url(#paint2_linear_210_1618)"></path> <path d="M33.3482 17.3734H5.37012V7.21875H33.3482V17.3734ZM32.3436 8.225H6.37637V16.3641H32.3436V8.225Z" fill="url(#paint3_linear_210_1618)"></path> <path d="M12.9092 9.09213H14.8717C15.1195 9.07627 15.3678 9.11429 15.5995 9.20357C15.8312 9.29285 16.0408 9.43128 16.2139 9.60932C16.5504 10.0201 16.718 10.5435 16.6826 11.0734C16.7179 11.6056 16.5505 12.1315 16.2139 12.5453C16.0404 12.7225 15.8306 12.86 15.5989 12.9485C15.3672 13.0369 15.1191 13.0742 14.8717 13.0578H14.0904V15.1656H12.9092V9.09213ZM14.092 10.2265V11.9234H14.7467C14.8461 11.9291 14.9455 11.9122 15.0375 11.874C15.1295 11.8359 15.2117 11.7774 15.2779 11.7031C15.4119 11.5232 15.4783 11.302 15.4654 11.0781C15.4798 10.854 15.4133 10.6322 15.2779 10.4531C15.2118 10.3786 15.1296 10.3201 15.0376 10.2819C14.9456 10.2438 14.8461 10.227 14.7467 10.2328H14.092V10.2265ZM18.6998 10.2812V13.9828H19.1232C19.3315 13.9967 19.54 13.9615 19.7322 13.8801C19.9243 13.7987 20.0947 13.6733 20.2295 13.514C20.5115 13.1104 20.6472 12.6225 20.6139 12.1312C20.6471 11.6428 20.5126 11.1577 20.2326 10.7562C20.0971 10.597 19.9262 10.4716 19.7335 10.3902C19.5409 10.3088 19.3319 10.2736 19.1232 10.2874H18.6998V10.2812ZM17.517 9.10307H18.767C19.2891 9.07647 19.812 9.14043 20.3123 9.29213C20.6616 9.42806 20.9659 9.6592 21.1904 9.95932C21.4098 10.2417 21.5727 10.5637 21.6701 10.9078C21.7795 11.3041 21.8321 11.7139 21.8264 12.1249C21.8321 12.5396 21.7795 12.953 21.6701 13.3531C21.5727 13.6971 21.4098 14.0192 21.1904 14.3015C20.963 14.6025 20.657 14.835 20.3061 14.9734C19.8047 15.1256 19.2811 15.1916 18.7576 15.1687H17.5076V9.09213L17.517 9.10307ZM22.7295 9.09213H25.9373V10.2765H23.9217V11.4062H25.8107V12.5906H23.9217V15.1656H22.7389V9.09213" fill="#FFF9F9"></path> <defs> <linearGradient id="paint0_linear_210_1618" x1="22.8852" y1="36.0057" x2="33.9384" y2="16.0287" gradientUnits="userSpaceOnUse"> <stop stop-color="white"></stop> <stop offset="1" stop-color="#E1E1E1"></stop> </linearGradient> <linearGradient id="paint1_linear_210_1618" x1="36.8076" y1="12.0797" x2="38.5076" y2="10.5125" gradientUnits="userSpaceOnUse"> <stop stop-color="white"></stop> <stop offset="1" stop-color="#C8C8C8"></stop> </linearGradient> <linearGradient id="paint2_linear_210_1618" x1="21.9672" y1="20.3609" x2="16.7266" y2="4.2312" gradientUnits="userSpaceOnUse"> <stop offset="0.127" stop-color="#8A0000"></stop> <stop offset="0.244" stop-color="#900000" stop-opacity="0.999"></stop> <stop offset="0.398" stop-color="#A00000" stop-opacity="0.999"></stop> <stop offset="0.573" stop-color="#BC0000" stop-opacity="0.998"></stop> <stop offset="0.761" stop-color="#E20000" stop-opacity="0.997"></stop> <stop offset="0.867" stop-color="#FA0000" stop-opacity="0.996"></stop> </linearGradient> <linearGradient id="paint3_linear_210_1618" x1="22.1873" y1="21" x2="16.5326" y2="3.59219" gradientUnits="userSpaceOnUse"> <stop offset="0.315" stop-color="#5E0000"></stop> <stop offset="0.444" stop-color="#830000" stop-opacity="0.999"></stop> <stop offset="0.618" stop-color="#AE0000" stop-opacity="0.998"></stop> <stop offset="0.775" stop-color="#CD0000" stop-opacity="0.997"></stop> <stop offset="0.908" stop-color="#E00000" stop-opacity="0.996"></stop> <stop offset="1" stop-color="#E70000" stop-opacity="0.996"></stop> </linearGradient> </defs> </svg> 