<?xml version="1.0" encoding="UTF-8"?> <svg xmlns="http://www.w3.org/2000/svg" width="20" height="14" viewBox="0 0 20 14" fill="none"> <circle cx="1.29753" cy="11.8075" r="1.29753" fill="#FB596A"></circle> <circle cx="18.7025" cy="1.31331" r="1.29753" transform="rotate(-180 18.7025 1.31331)" fill="#FB596A"></circle> <path d="M5.70866 0C6.24083 0 6.80393 0.0992454 7.14312 0.50931C7.29146 0.688646 7.41112 0.894819 7.49386 1.12205L11.8623 13.1208H9.23482L5.50441 2.80587L4.48964 5.61183L4.13485 6.59286H1.55664L2.3352 4.36249L3.51496 1.12205C3.5977 0.894819 3.71736 0.688646 3.8657 0.50931C4.2049 0.0992454 4.76799 0 5.30016 0H5.70866Z" fill="#14134F"></path> <path d="M14.2913 13.1208C13.7592 13.1208 13.1961 13.0216 12.8569 12.6115C12.7085 12.4322 12.5889 12.226 12.5061 11.9988L8.13767 4.18352e-06L10.7652 4.41322e-06L14.4956 10.315L15.5104 7.50902L15.8652 6.52799L18.4434 6.52799L17.6648 8.75836L16.485 11.9988C16.4023 12.226 16.2826 12.4322 16.1343 12.6115C15.7951 13.0216 15.232 13.1208 14.6998 13.1208L14.2913 13.1208Z" fill="#14134F"></path> </svg> 