<?xml version="1.0" encoding="UTF-8"?> <svg xmlns="http://www.w3.org/2000/svg" width="60" height="60" viewBox="0 0 60 60" fill="none"> <circle cx="30" cy="30" r="24.5833" stroke="#EDF2FE" stroke-width="0.833333"></circle> <path d="M30 5C43.8071 5 55 16.1929 55 30C55 43.8071 43.8071 55 30 55C16.1929 55 5 43.8071 5 30C5 23.3939 7.56227 17.3863 11.7472 12.9167" stroke="#FB596A" stroke-width="3.33333" stroke-linecap="round"></path> <path d="M11.7472 12.9167C7.56227 17.3863 5 23.3939 5 30C5 43.8071 16.1929 55 30 55C43.8071 55 55 43.8071 55 30C55 23.9915 52.8803 18.478 49.3479 14.1667" stroke="#EDF2FE" stroke-width="3.33333" stroke-linecap="round"></path> <path d="M20.61 40V31.18H19.56L19.84 30.2H21.59V40H20.61ZM26.8841 40.182C26.2961 40.182 25.7711 40.0513 25.3091 39.79C24.8471 39.524 24.4527 39.1577 24.1261 38.691C23.7994 38.2243 23.5497 37.6853 23.3771 37.074C23.2091 36.458 23.1251 35.8 23.1251 35.1C23.1251 34.4 23.2091 33.742 23.3771 33.126C23.5497 32.51 23.7994 31.971 24.1261 31.509C24.4527 31.0423 24.8471 30.6783 25.3091 30.417C25.7711 30.151 26.2961 30.018 26.8841 30.018C27.4674 30.018 27.9901 30.151 28.4521 30.417C28.9141 30.6783 29.3061 31.0423 29.6281 31.509C29.9501 31.971 30.1951 32.51 30.3631 33.126C30.5357 33.742 30.6221 34.4 30.6221 35.1C30.6221 35.8 30.5357 36.458 30.3631 37.074C30.1951 37.6853 29.9501 38.2243 29.6281 38.691C29.3061 39.1577 28.9141 39.524 28.4521 39.79C27.9901 40.0513 27.4674 40.182 26.8841 40.182ZM26.8841 39.202C27.5001 39.202 28.0157 39.013 28.4311 38.635C28.8511 38.257 29.1661 37.7577 29.3761 37.137C29.5861 36.5117 29.6911 35.8327 29.6911 35.1C29.6911 34.3253 29.5814 33.63 29.3621 33.014C29.1474 32.3933 28.8301 31.9033 28.4101 31.544C27.9947 31.18 27.4861 30.998 26.8841 30.998C26.4081 30.998 25.9927 31.1077 25.6381 31.327C25.2834 31.5463 24.9894 31.8473 24.7561 32.23C24.5227 32.6127 24.3477 33.0513 24.2311 33.546C24.1144 34.036 24.0561 34.554 24.0561 35.1C24.0561 35.8373 24.1634 36.5187 24.3781 37.144C24.5927 37.7647 24.9101 38.264 25.3301 38.642C25.7501 39.0153 26.2681 39.202 26.8841 39.202ZM32.1299 40L37.7859 30.2H38.9199L33.2639 40H32.1299ZM33.2779 34.029C32.9699 34.029 32.6899 33.9543 32.4379 33.805C32.1859 33.6557 31.9829 33.455 31.8289 33.203C31.6796 32.9463 31.6049 32.664 31.6049 32.356C31.6049 32.0387 31.6796 31.754 31.8289 31.502C31.9829 31.25 32.1859 31.0493 32.4379 30.9C32.6946 30.7507 32.9746 30.676 33.2779 30.676C33.5859 30.676 33.8659 30.753 34.1179 30.907C34.3699 31.0563 34.5706 31.257 34.7199 31.509C34.8739 31.761 34.9509 32.0433 34.9509 32.356C34.9509 32.6687 34.8739 32.951 34.7199 33.203C34.5706 33.455 34.3676 33.6557 34.1109 33.805C33.8589 33.9543 33.5813 34.029 33.2779 34.029ZM33.2779 33.28C33.5393 33.28 33.7586 33.1913 33.9359 33.014C34.1133 32.832 34.2019 32.6127 34.2019 32.356C34.2019 32.0947 34.1133 31.8753 33.9359 31.698C33.7586 31.516 33.5393 31.425 33.2779 31.425C33.0213 31.425 32.8019 31.516 32.6199 31.698C32.4426 31.8753 32.3539 32.0947 32.3539 32.356C32.3539 32.6127 32.4426 32.832 32.6199 33.014C32.8019 33.1913 33.0213 33.28 33.2779 33.28ZM37.7859 39.531C37.4779 39.531 37.1956 39.454 36.9389 39.3C36.6869 39.1413 36.4839 38.936 36.3299 38.684C36.1806 38.4273 36.1059 38.1497 36.1059 37.851C36.1059 37.5383 36.1829 37.256 36.3369 37.004C36.4909 36.7473 36.6939 36.5443 36.9459 36.395C37.2026 36.2457 37.4826 36.171 37.7859 36.171C38.0986 36.171 38.3809 36.248 38.6329 36.402C38.8849 36.556 39.0856 36.7613 39.2349 37.018C39.3843 37.27 39.4589 37.5477 39.4589 37.851C39.4589 38.159 39.3843 38.4413 39.2349 38.698C39.0856 38.95 38.8826 39.153 38.6259 39.307C38.3739 39.4563 38.0939 39.531 37.7859 39.531ZM37.7859 38.782C38.0379 38.782 38.2549 38.691 38.4369 38.509C38.6189 38.327 38.7099 38.1077 38.7099 37.851C38.7099 37.5943 38.6189 37.375 38.4369 37.193C38.2549 37.011 38.0379 36.92 37.7859 36.92C37.5293 36.92 37.3076 37.011 37.1209 37.193C36.9389 37.375 36.8479 37.5943 36.8479 37.851C36.8479 38.1077 36.9389 38.327 37.1209 38.509C37.3076 38.691 37.5293 38.782 37.7859 38.782Z" fill="#FAFAFA" fill-opacity="0.7"></path> <path d="M30 16L35.1962 25H24.8038L30 16Z" fill="#FAFAFA"></path> </svg> 