<?xml version="1.0" encoding="UTF-8"?> <svg xmlns="http://www.w3.org/2000/svg" width="40" height="40" viewBox="0 0 40 40" fill="none"> <path d="M2.85687 19.9998C2.85687 29.4669 10.5326 37.1426 19.9997 37.1426C29.4669 37.1426 37.1426 29.4669 37.1426 19.9998C37.1426 10.5326 29.4669 2.85693 19.9997 2.85693C10.5326 2.85693 2.85687 10.5326 2.85687 19.9998ZM20.314 27.1855C20.1134 26.9846 20.0007 26.7123 20.0007 26.4284C20.0007 26.1444 20.1134 25.8721 20.314 25.6712L24.914 21.0712H12.4997C12.2156 21.0712 11.943 20.9583 11.7421 20.7574C11.5412 20.5565 11.4283 20.284 11.4283 19.9998C11.4283 19.7156 11.5412 19.4431 11.7421 19.2422C11.943 19.0412 12.2156 18.9284 12.4997 18.9284H24.914L20.314 14.3284C20.2087 14.2303 20.1243 14.112 20.0657 13.9806C20.0072 13.8491 19.9757 13.7073 19.9732 13.5634C19.9706 13.4195 19.9971 13.2766 20.051 13.1432C20.1049 13.0098 20.1851 12.8886 20.2868 12.7869C20.3886 12.6851 20.5097 12.6049 20.6432 12.551C20.7766 12.4972 20.9195 12.4707 21.0633 12.4732C21.2072 12.4758 21.3491 12.5073 21.4805 12.5658C21.6119 12.6244 21.7302 12.7088 21.8283 12.8141L28.2569 19.2426C28.4575 19.4435 28.5702 19.7159 28.5702 19.9998C28.5702 20.2837 28.4575 20.556 28.2569 20.7569L21.8283 27.1855C21.6274 27.3861 21.3551 27.4988 21.0712 27.4988C20.7872 27.4988 20.5149 27.3861 20.314 27.1855V27.1855Z" fill="#14134F"></path> </svg> 