<svg width="200" height="200" viewBox="0 0 200 200" fill="none" xmlns="http://www.w3.org/2000/svg">
<line x1="20.5" y1="51" x2="20.5" y2="179" stroke="white" stroke-opacity="0.5"/>
<line x1="181" y1="179.5" x2="20" y2="179.5" stroke="white" stroke-opacity="0.5"/>
<g clip-path="url(#clip0_1_23)">
<path d="M22 179C25.2162 171.156 30.1564 164.901 36.5934 158.554C42.9509 152.286 49.8083 146.013 57.3829 140.72C70.4809 131.568 86.3689 125.418 101.951 119.779C109.357 117.099 115.124 114.061 122 110.5C131.183 105.744 140.912 100.029 148.313 93.5234C160.529 82.7854 174.111 71.1519 180 57" stroke="#EDF2FE" stroke-linecap="round"/>
<path d="M24 87C27.2162 90.4719 32.1564 93.2406 38.5934 96.0498C44.9509 98.8243 51.8083 101.601 59.3829 103.944C72.4809 107.994 88.3689 110.717 103.951 113.213C111.357 114.399 118.843 115.524 125.719 117.1C134.902 119.205 142.912 121.955 150.313 124.834C162.529 129.587 176.111 134.736 182 141" stroke="#FB596A" stroke-linecap="round"/>
<path d="M142 151L136.804 142H147.196L142 151Z" fill="#FAFAFA"/>
<path d="M131.144 167.208C130.387 167.208 129.675 167.059 129.008 166.76C128.341 166.456 127.755 166.04 127.248 165.512C126.747 164.979 126.352 164.36 126.064 163.656C125.781 162.952 125.64 162.2 125.64 161.4C125.64 160.6 125.781 159.848 126.064 159.144C126.352 158.44 126.747 157.824 127.248 157.296C127.755 156.763 128.341 156.347 129.008 156.048C129.675 155.744 130.387 155.592 131.144 155.592C132.051 155.592 132.885 155.803 133.648 156.224C134.411 156.645 135.043 157.205 135.544 157.904L134.352 158.544C133.979 158.053 133.507 157.664 132.936 157.376C132.371 157.083 131.773 156.936 131.144 156.936C130.563 156.936 130.019 157.053 129.512 157.288C129.011 157.523 128.571 157.845 128.192 158.256C127.813 158.667 127.517 159.141 127.304 159.68C127.091 160.219 126.984 160.792 126.984 161.4C126.984 162.013 127.091 162.589 127.304 163.128C127.523 163.667 127.821 164.141 128.2 164.552C128.584 164.963 129.027 165.285 129.528 165.52C130.035 165.749 130.573 165.864 131.144 165.864C131.795 165.864 132.397 165.717 132.952 165.424C133.512 165.125 133.979 164.736 134.352 164.256L135.544 164.904C135.043 165.603 134.411 166.163 133.648 166.584C132.885 167 132.051 167.208 131.144 167.208ZM140.759 155.8H142.383L146.455 167H145.031L144.199 164.712H138.943L138.119 167H136.687L140.759 155.8ZM139.439 163.368H143.703L141.567 157.52L139.439 163.368ZM152.535 167.208C151.777 167.208 151.065 167.059 150.399 166.76C149.732 166.456 149.145 166.04 148.639 165.512C148.137 164.979 147.743 164.36 147.455 163.656C147.172 162.952 147.031 162.2 147.031 161.4C147.031 160.6 147.172 159.848 147.455 159.144C147.743 158.44 148.137 157.824 148.639 157.296C149.145 156.763 149.732 156.347 150.399 156.048C151.065 155.744 151.777 155.592 152.535 155.592C153.441 155.592 154.276 155.803 155.039 156.224C155.801 156.645 156.433 157.205 156.935 157.904L155.743 158.544C155.369 158.053 154.897 157.664 154.327 157.376C153.761 157.083 153.164 156.936 152.535 156.936C151.953 156.936 151.409 157.053 150.903 157.288C150.401 157.523 149.961 157.845 149.583 158.256C149.204 158.667 148.908 159.141 148.695 159.68C148.481 160.219 148.375 160.792 148.375 161.4C148.375 162.013 148.481 162.589 148.695 163.128C148.913 163.667 149.212 164.141 149.591 164.552C149.975 164.963 150.417 165.285 150.919 165.52C151.425 165.749 151.964 165.864 152.535 165.864C153.185 165.864 153.788 165.717 154.343 165.424C154.903 165.125 155.369 164.736 155.743 164.256L156.935 164.904C156.433 165.603 155.801 166.163 155.039 166.584C154.276 167 153.441 167.208 152.535 167.208Z" fill="white" fill-opacity="0.5"/>
<path d="M139.96 74V62.8H141.304V72.656H146.32V74H139.96ZM155.354 62.8V64.144H151.626V74H150.282V64.144H146.562V62.8H155.354ZM160.512 74L156.448 62.8H157.872L161.344 72.36L164.824 62.8H166.24L162.176 74H160.512Z" fill="white" fill-opacity="0.5"/>
</g>
<path d="M21.96 36V24.8H23.304V34.656H28.32V36H21.96ZM37.3539 24.8V26.144H33.6259V36H32.2819V26.144H28.5619V24.8H37.3539ZM42.512 36L38.448 24.8H39.872L43.344 34.36L46.824 24.8H48.24L44.176 36H42.512ZM56.4829 36.208C55.8429 36.208 55.2749 36.0533 54.7789 35.744C54.2829 35.4347 53.8935 35.0293 53.6109 34.528C53.3282 34.0213 53.1869 33.48 53.1869 32.904C53.1869 32.5573 53.2215 32.256 53.2909 32C53.3602 31.744 53.4802 31.4933 53.6509 31.248C53.8269 30.9973 54.0669 30.712 54.3709 30.392C54.6749 30.072 55.0642 29.6747 55.5389 29.2C55.2669 28.9227 55.0402 28.688 54.8589 28.496C54.6775 28.2987 54.5362 28.1173 54.4349 27.952C54.3335 27.7867 54.2615 27.6187 54.2189 27.448C54.1762 27.2773 54.1549 27.08 54.1549 26.856C54.1549 26.4187 54.2615 26.024 54.4749 25.672C54.6882 25.3147 54.9709 25.0347 55.3229 24.832C55.6802 24.624 56.0669 24.52 56.4829 24.52C56.9149 24.52 57.3069 24.624 57.6589 24.832C58.0109 25.04 58.2909 25.32 58.4989 25.672C58.7122 26.024 58.8189 26.4187 58.8189 26.856C58.8189 27.0853 58.7975 27.288 58.7549 27.464C58.7122 27.64 58.6375 27.8107 58.5309 27.976C58.4242 28.1413 58.2802 28.3227 58.0989 28.52C57.9229 28.712 57.7015 28.9387 57.4349 29.2L60.1949 31.96L62.0189 30.128V32.024L61.1309 32.92L63.2749 35.048L62.3229 36L60.1949 33.88C59.7149 34.3547 59.3122 34.744 58.9869 35.048C58.6669 35.352 58.3815 35.5893 58.1309 35.76C57.8855 35.9307 57.6349 36.048 57.3789 36.112C57.1282 36.176 56.8295 36.208 56.4829 36.208ZM56.4829 34.864C56.7282 34.864 56.9362 34.8373 57.1069 34.784C57.2829 34.7253 57.4589 34.6267 57.6349 34.488C57.8162 34.344 58.0295 34.1467 58.2749 33.896C58.5255 33.64 58.8482 33.312 59.2429 32.912L56.4829 30.152C56.0775 30.5627 55.7469 30.896 55.4909 31.152C55.2349 31.4027 55.0375 31.616 54.8989 31.792C54.7655 31.968 54.6722 32.1413 54.6189 32.312C54.5655 32.4827 54.5389 32.6853 54.5389 32.92C54.5389 33.288 54.6269 33.6187 54.8029 33.912C54.9842 34.2053 55.2215 34.4373 55.5149 34.608C55.8082 34.7787 56.1309 34.864 56.4829 34.864ZM56.4829 28.424C56.7975 28.1093 57.0349 27.872 57.1949 27.712C57.3602 27.552 57.4722 27.4133 57.5309 27.296C57.5895 27.1787 57.6189 27.0267 57.6189 26.84C57.6189 26.5093 57.5042 26.2373 57.2749 26.024C57.0455 25.8107 56.7815 25.704 56.4829 25.704C56.1735 25.704 55.9095 25.816 55.6909 26.04C55.4722 26.264 55.3629 26.5307 55.3629 26.84C55.3629 27.0267 55.3949 27.184 55.4589 27.312C55.5229 27.4347 55.6349 27.576 55.7949 27.736C55.9549 27.896 56.1842 28.1253 56.4829 28.424ZM73.9096 36.208C73.1523 36.208 72.4403 36.0587 71.7736 35.76C71.107 35.456 70.5203 35.04 70.0136 34.512C69.5123 33.9787 69.1176 33.36 68.8296 32.656C68.547 31.952 68.4056 31.2 68.4056 30.4C68.4056 29.6 68.547 28.848 68.8296 28.144C69.1176 27.44 69.5123 26.824 70.0136 26.296C70.5203 25.7627 71.107 25.3467 71.7736 25.048C72.4403 24.744 73.1523 24.592 73.9096 24.592C74.8163 24.592 75.651 24.8027 76.4136 25.224C77.1763 25.6453 77.8083 26.2053 78.3096 26.904L77.1176 27.544C76.7443 27.0533 76.2723 26.664 75.7016 26.376C75.1363 26.0827 74.539 25.936 73.9096 25.936C73.3283 25.936 72.7843 26.0533 72.2776 26.288C71.7763 26.5227 71.3363 26.8453 70.9576 27.256C70.579 27.6667 70.283 28.1413 70.0696 28.68C69.8563 29.2187 69.7496 29.792 69.7496 30.4C69.7496 31.0133 69.8563 31.5893 70.0696 32.128C70.2883 32.6667 70.587 33.1413 70.9656 33.552C71.3496 33.9627 71.7923 34.2853 72.2936 34.52C72.8003 34.7493 73.339 34.864 73.9096 34.864C74.5603 34.864 75.163 34.7173 75.7176 34.424C76.2776 34.1253 76.7443 33.736 77.1176 33.256L78.3096 33.904C77.8083 34.6027 77.1763 35.1627 76.4136 35.584C75.651 36 74.8163 36.208 73.9096 36.208ZM83.5245 24.8H85.1485L89.2205 36H87.7965L86.9645 33.712H81.7085L80.8845 36H79.4525L83.5245 24.8ZM82.2045 32.368H86.4685L84.3325 26.52L82.2045 32.368ZM95.3003 36.208C94.5429 36.208 93.8309 36.0587 93.1643 35.76C92.4976 35.456 91.9109 35.04 91.4043 34.512C90.9029 33.9787 90.5083 33.36 90.2203 32.656C89.9376 31.952 89.7963 31.2 89.7963 30.4C89.7963 29.6 89.9376 28.848 90.2203 28.144C90.5083 27.44 90.9029 26.824 91.4043 26.296C91.9109 25.7627 92.4976 25.3467 93.1643 25.048C93.8309 24.744 94.5429 24.592 95.3003 24.592C96.2069 24.592 97.0416 24.8027 97.8043 25.224C98.5669 25.6453 99.1989 26.2053 99.7003 26.904L98.5083 27.544C98.1349 27.0533 97.6629 26.664 97.0923 26.376C96.5269 26.0827 95.9296 25.936 95.3003 25.936C94.7189 25.936 94.1749 26.0533 93.6683 26.288C93.1669 26.5227 92.7269 26.8453 92.3483 27.256C91.9696 27.6667 91.6736 28.1413 91.4603 28.68C91.2469 29.2187 91.1403 29.792 91.1403 30.4C91.1403 31.0133 91.2469 31.5893 91.4603 32.128C91.6789 32.6667 91.9776 33.1413 92.3563 33.552C92.7403 33.9627 93.1829 34.2853 93.6843 34.52C94.1909 34.7493 94.7296 34.864 95.3003 34.864C95.9509 34.864 96.5536 34.7173 97.1083 34.424C97.6683 34.1253 98.1349 33.736 98.5083 33.256L99.7003 33.904C99.1989 34.6027 98.5669 35.1627 97.8043 35.584C97.0416 36 96.2069 36.208 95.3003 36.208Z" fill="white"/>
<path d="M153 45L158.196 54H147.804L153 45Z" fill="#FAFAFA"/>
<defs>
<clipPath id="clip0_1_23">
<rect width="162" height="126" fill="white" transform="translate(20 55)"/>
</clipPath>
</defs>
</svg>
