<svg width="360" height="320" viewBox="0 0 360 320" fill="none" xmlns="http://www.w3.org/2000/svg">
<line x1="30.5" y1="90" x2="30.5" y2="260" stroke="#14134F" stroke-opacity="0.5"/>
<path d="M32 259C38.0863 248.199 47.4352 239.585 59.6166 230.845C71.6475 222.213 84.6246 213.575 98.9587 206.287C123.746 193.684 153.812 185.215 183.3 177.45C197.314 173.759 211.482 170.26 224.493 165.357C241.872 158.808 257.03 150.253 271.035 141.295C294.153 126.508 319.855 110.488 331 91" stroke="#14134F" stroke-linecap="round"/>
<circle cx="237" cy="160" r="9" fill="#FB596A"/>
<path d="M239 104L244.196 113H233.804L239 104Z" fill="#14134F"/>
<path d="M221.263 130.182C220.74 130.182 220.234 130.1 219.744 129.937C219.259 129.774 218.834 129.54 218.47 129.237C218.106 128.934 217.849 128.572 217.7 128.152L218.617 127.809C218.72 128.098 218.906 128.348 219.177 128.558C219.452 128.763 219.772 128.922 220.136 129.034C220.505 129.146 220.88 129.202 221.263 129.202C221.711 129.202 222.129 129.127 222.516 128.978C222.903 128.829 223.216 128.621 223.454 128.355C223.692 128.084 223.811 127.767 223.811 127.403C223.811 127.034 223.687 126.731 223.44 126.493C223.193 126.255 222.873 126.068 222.481 125.933C222.094 125.793 221.688 125.686 221.263 125.611C220.596 125.494 219.996 125.336 219.464 125.135C218.937 124.934 218.519 124.652 218.211 124.288C217.903 123.919 217.749 123.434 217.749 122.832C217.749 122.267 217.912 121.777 218.239 121.362C218.566 120.947 218.995 120.625 219.527 120.396C220.064 120.167 220.642 120.053 221.263 120.053C221.772 120.053 222.269 120.132 222.754 120.291C223.239 120.45 223.666 120.681 224.035 120.984C224.408 121.287 224.677 121.658 224.84 122.097L223.909 122.433C223.806 122.139 223.617 121.889 223.342 121.684C223.071 121.474 222.754 121.315 222.39 121.208C222.026 121.096 221.65 121.04 221.263 121.04C220.82 121.035 220.404 121.11 220.017 121.264C219.634 121.413 219.324 121.623 219.086 121.894C218.848 122.16 218.729 122.473 218.729 122.832C218.729 123.252 218.839 123.576 219.058 123.805C219.282 124.029 219.585 124.197 219.968 124.309C220.351 124.421 220.782 124.521 221.263 124.61C221.888 124.717 222.469 124.885 223.006 125.114C223.543 125.338 223.974 125.639 224.301 126.017C224.628 126.39 224.791 126.852 224.791 127.403C224.791 127.963 224.628 128.453 224.301 128.873C223.974 129.288 223.543 129.61 223.006 129.839C222.474 130.068 221.893 130.182 221.263 130.182ZM232.043 123H233.023V130H232.043L232.008 128.698C231.78 129.141 231.46 129.501 231.049 129.776C230.639 130.047 230.149 130.182 229.579 130.182C229.066 130.182 228.585 130.086 228.137 129.895C227.689 129.699 227.295 129.431 226.954 129.09C226.614 128.749 226.348 128.355 226.156 127.907C225.965 127.459 225.869 126.978 225.869 126.465C225.869 125.961 225.963 125.487 226.149 125.044C226.341 124.601 226.602 124.211 226.933 123.875C227.269 123.539 227.657 123.278 228.095 123.091C228.539 122.9 229.012 122.804 229.516 122.804C230.1 122.804 230.608 122.944 231.042 123.224C231.476 123.499 231.822 123.861 232.078 124.309L232.043 123ZM229.558 129.23C230.058 129.23 230.487 129.109 230.846 128.866C231.206 128.619 231.481 128.287 231.672 127.872C231.868 127.457 231.966 126.999 231.966 126.5C231.966 125.987 231.868 125.525 231.672 125.114C231.476 124.699 231.199 124.37 230.839 124.127C230.48 123.884 230.053 123.763 229.558 123.763C229.064 123.763 228.611 123.887 228.2 124.134C227.794 124.377 227.47 124.706 227.227 125.121C226.989 125.536 226.87 125.996 226.87 126.5C226.87 127.009 226.994 127.471 227.241 127.886C227.489 128.297 227.815 128.623 228.221 128.866C228.632 129.109 229.078 129.23 229.558 129.23ZM237.668 130H236.422L233.867 122.979H234.91L237.045 128.852L239.18 122.979H240.223L237.668 130ZM241.383 123H242.363V130H241.383V123ZM241.88 121.775C241.721 121.775 241.586 121.724 241.474 121.621C241.367 121.514 241.313 121.381 241.313 121.222C241.313 121.063 241.367 120.933 241.474 120.83C241.586 120.723 241.721 120.669 241.88 120.669C242.034 120.669 242.165 120.723 242.272 120.83C242.384 120.933 242.44 121.063 242.44 121.222C242.44 121.381 242.386 121.514 242.279 121.621C242.172 121.724 242.039 121.775 241.88 121.775ZM250.126 125.667V130H249.146V125.863C249.146 125.48 249.052 125.133 248.866 124.82C248.679 124.507 248.429 124.258 248.117 124.071C247.804 123.884 247.456 123.791 247.074 123.791C246.696 123.791 246.348 123.884 246.031 124.071C245.718 124.258 245.468 124.507 245.282 124.82C245.095 125.133 245.002 125.48 245.002 125.863V130H244.022V123H245.002V123.966C245.249 123.611 245.571 123.329 245.968 123.119C246.364 122.909 246.796 122.804 247.263 122.804C247.79 122.804 248.271 122.932 248.705 123.189C249.139 123.446 249.484 123.791 249.741 124.225C249.997 124.659 250.126 125.14 250.126 125.667ZM256.956 123H257.936V130.259C257.936 130.707 257.838 131.127 257.642 131.519C257.45 131.911 257.189 132.254 256.858 132.548C256.531 132.847 256.158 133.08 255.738 133.248C255.318 133.416 254.881 133.5 254.429 133.5C253.943 133.5 253.474 133.388 253.022 133.164C252.569 132.945 252.175 132.651 251.839 132.282C251.507 131.913 251.272 131.505 251.132 131.057L252.035 130.644C252.123 130.994 252.289 131.309 252.532 131.589C252.779 131.874 253.068 132.098 253.4 132.261C253.736 132.429 254.079 132.513 254.429 132.513C254.751 132.513 255.061 132.452 255.36 132.331C255.663 132.214 255.934 132.053 256.172 131.848C256.414 131.643 256.606 131.402 256.746 131.127C256.886 130.856 256.956 130.567 256.956 130.259V128.712C256.713 129.151 256.384 129.505 255.969 129.776C255.558 130.047 255.08 130.182 254.534 130.182C254.044 130.182 253.582 130.086 253.148 129.895C252.718 129.704 252.34 129.44 252.014 129.104C251.687 128.763 251.43 128.371 251.244 127.928C251.062 127.485 250.971 127.009 250.971 126.5C250.971 125.991 251.062 125.515 251.244 125.072C251.43 124.624 251.687 124.232 252.014 123.896C252.34 123.555 252.718 123.289 253.148 123.098C253.582 122.907 254.044 122.811 254.534 122.811C255.08 122.811 255.558 122.946 255.969 123.217C256.384 123.483 256.713 123.838 256.956 124.281V123ZM254.541 129.23C255.026 129.23 255.444 129.104 255.794 128.852C256.148 128.6 256.421 128.266 256.613 127.851C256.804 127.436 256.9 126.985 256.9 126.5C256.9 126.001 256.802 125.546 256.606 125.135C256.414 124.72 256.141 124.388 255.787 124.141C255.432 123.889 255.017 123.763 254.541 123.763C254.065 123.763 253.631 123.887 253.239 124.134C252.851 124.377 252.543 124.706 252.315 125.121C252.086 125.536 251.972 125.996 251.972 126.5C251.972 127.004 252.088 127.464 252.322 127.879C252.555 128.29 252.865 128.619 253.253 128.866C253.645 129.109 254.074 129.23 254.541 129.23ZM261.784 130.133C261.402 130.124 261.028 130.054 260.664 129.923C260.3 129.792 259.983 129.615 259.712 129.391C259.442 129.167 259.248 128.913 259.131 128.628L259.978 128.264C260.053 128.446 260.191 128.614 260.391 128.768C260.597 128.917 260.83 129.039 261.091 129.132C261.353 129.221 261.612 129.265 261.868 129.265C262.153 129.265 262.419 129.218 262.666 129.125C262.914 129.032 263.114 128.899 263.268 128.726C263.427 128.549 263.506 128.341 263.506 128.103C263.506 127.846 263.422 127.646 263.254 127.501C263.086 127.352 262.874 127.235 262.617 127.151C262.361 127.062 262.097 126.978 261.826 126.899C261.332 126.764 260.895 126.614 260.517 126.451C260.139 126.288 259.843 126.08 259.628 125.828C259.418 125.571 259.313 125.242 259.313 124.841C259.313 124.416 259.432 124.05 259.67 123.742C259.913 123.429 260.228 123.189 260.615 123.021C261.007 122.848 261.425 122.762 261.868 122.762C262.438 122.762 262.956 122.886 263.422 123.133C263.894 123.38 264.234 123.709 264.444 124.12L263.653 124.589C263.569 124.398 263.436 124.232 263.254 124.092C263.072 123.952 262.865 123.842 262.631 123.763C262.403 123.684 262.169 123.642 261.931 123.637C261.633 123.632 261.355 123.677 261.098 123.77C260.842 123.859 260.634 123.992 260.475 124.169C260.321 124.346 260.244 124.563 260.244 124.82C260.244 125.077 260.321 125.273 260.475 125.408C260.629 125.539 260.837 125.646 261.098 125.73C261.364 125.809 261.663 125.903 261.994 126.01C262.419 126.145 262.818 126.299 263.191 126.472C263.565 126.645 263.866 126.859 264.094 127.116C264.323 127.373 264.435 127.697 264.43 128.089C264.43 128.509 264.304 128.875 264.052 129.188C263.8 129.501 263.474 129.741 263.072 129.909C262.671 130.072 262.242 130.147 261.784 130.133Z" fill="#14134F" fill-opacity="0.5"/>
<line x1="31" y1="259.5" x2="330" y2="259.5" stroke="#14134F" stroke-opacity="0.5"/>
<path d="M216.84 284V274.2H220.081C220.758 274.2 221.392 274.328 221.985 274.585C222.578 274.837 223.098 275.189 223.546 275.642C223.994 276.09 224.344 276.61 224.596 277.203C224.853 277.791 224.981 278.423 224.981 279.1C224.981 279.777 224.853 280.411 224.596 281.004C224.344 281.592 223.994 282.112 223.546 282.565C223.098 283.013 222.578 283.365 221.985 283.622C221.392 283.874 220.758 284 220.081 284H216.84ZM217.82 283.02H220.081C220.622 283.02 221.129 282.92 221.6 282.719C222.076 282.514 222.494 282.231 222.853 281.872C223.212 281.513 223.492 281.097 223.693 280.626C223.898 280.15 224.001 279.641 224.001 279.1C224.001 278.559 223.898 278.052 223.693 277.581C223.492 277.105 223.21 276.687 222.846 276.328C222.487 275.969 222.071 275.689 221.6 275.488C221.129 275.283 220.622 275.18 220.081 275.18H217.82V283.02ZM229.231 284.182C228.587 284.182 227.999 284.016 227.467 283.685C226.939 283.354 226.517 282.91 226.2 282.355C225.887 281.795 225.731 281.177 225.731 280.5C225.731 279.987 225.822 279.508 226.004 279.065C226.186 278.617 226.435 278.225 226.753 277.889C227.075 277.548 227.448 277.282 227.873 277.091C228.297 276.9 228.75 276.804 229.231 276.804C229.749 276.804 230.225 276.907 230.659 277.112C231.097 277.317 231.473 277.604 231.786 277.973C232.103 278.342 232.341 278.773 232.5 279.268C232.663 279.763 232.731 280.297 232.703 280.871H226.767C226.823 281.314 226.963 281.711 227.187 282.061C227.415 282.411 227.705 282.689 228.055 282.894C228.409 283.095 228.801 283.197 229.231 283.202C229.697 283.202 230.117 283.081 230.491 282.838C230.869 282.595 231.172 282.262 231.401 281.837L232.395 282.068C232.115 282.689 231.692 283.197 231.128 283.594C230.563 283.986 229.931 284.182 229.231 284.182ZM226.739 280.08H231.716C231.683 279.646 231.55 279.249 231.317 278.89C231.088 278.526 230.792 278.237 230.428 278.022C230.064 277.803 229.665 277.693 229.231 277.693C228.797 277.693 228.4 277.8 228.041 278.015C227.681 278.225 227.387 278.512 227.159 278.876C226.93 279.235 226.79 279.637 226.739 280.08ZM238.832 282.243L239.707 282.719C239.39 283.162 238.986 283.517 238.496 283.783C238.011 284.049 237.483 284.182 236.914 284.182C236.27 284.182 235.682 284.016 235.15 283.685C234.623 283.354 234.2 282.91 233.883 282.355C233.57 281.795 233.414 281.177 233.414 280.5C233.414 279.987 233.505 279.508 233.687 279.065C233.869 278.617 234.119 278.225 234.436 277.889C234.758 277.548 235.131 277.282 235.556 277.091C235.981 276.9 236.433 276.804 236.914 276.804C237.483 276.804 238.011 276.937 238.496 277.203C238.986 277.469 239.39 277.826 239.707 278.274L238.832 278.743C238.589 278.435 238.298 278.199 237.957 278.036C237.616 277.868 237.269 277.784 236.914 277.784C236.443 277.784 236.016 277.91 235.633 278.162C235.25 278.409 234.947 278.738 234.723 279.149C234.504 279.56 234.394 280.01 234.394 280.5C234.394 280.99 234.506 281.44 234.73 281.851C234.959 282.262 235.264 282.591 235.647 282.838C236.03 283.081 236.452 283.202 236.914 283.202C237.297 283.202 237.656 283.113 237.992 282.936C238.328 282.759 238.608 282.528 238.832 282.243Z" fill="#14134F" fill-opacity="0.5"/>
<path d="M34.712 34.8H36.104L40.184 46H38.992L38.12 43.6H32.704L31.832 46H30.64L34.712 34.8ZM33.112 42.48H37.704L35.408 36.176L33.112 42.48ZM48.6079 41.048V46H47.4879V41.272C47.4879 40.8347 47.3812 40.4373 47.1679 40.08C46.9545 39.7227 46.6692 39.4373 46.3119 39.224C45.9545 39.0107 45.5572 38.904 45.1199 38.904C44.6879 38.904 44.2905 39.0107 43.9279 39.224C43.5705 39.4373 43.2852 39.7227 43.0719 40.08C42.8585 40.4373 42.7519 40.8347 42.7519 41.272V46H41.6319V38H42.7519V39.104C43.0345 38.6987 43.4025 38.376 43.8559 38.136C44.3092 37.896 44.8025 37.776 45.3359 37.776C45.9385 37.776 46.4879 37.9227 46.9839 38.216C47.4799 38.5093 47.8745 38.904 48.1679 39.4C48.4612 39.896 48.6079 40.4453 48.6079 41.048ZM57.186 41.048V46H56.066V41.272C56.066 40.8347 55.9593 40.4373 55.746 40.08C55.5327 39.7227 55.2473 39.4373 54.89 39.224C54.5327 39.0107 54.1353 38.904 53.698 38.904C53.266 38.904 52.8687 39.0107 52.506 39.224C52.1487 39.4373 51.8633 39.7227 51.65 40.08C51.4367 40.4373 51.33 40.8347 51.33 41.272V46H50.21V38H51.33V39.104C51.6127 38.6987 51.9807 38.376 52.434 38.136C52.8873 37.896 53.3807 37.776 53.914 37.776C54.5167 37.776 55.066 37.9227 55.562 38.216C56.058 38.5093 56.4527 38.904 56.746 39.4C57.0393 39.896 57.186 40.4453 57.186 41.048ZM58.4681 42.936V38H59.5881V42.712C59.5881 43.1493 59.6948 43.5467 59.9081 43.904C60.1215 44.2613 60.4068 44.5467 60.7641 44.76C61.1268 44.9733 61.5241 45.08 61.9561 45.08C62.3935 45.08 62.7881 44.9733 63.1401 44.76C63.4975 44.5467 63.7828 44.2613 63.9961 43.904C64.2095 43.5467 64.3161 43.1493 64.3161 42.712V38H65.4361L65.4441 46H64.3241L64.3161 44.88C64.0335 45.2853 63.6655 45.608 63.2121 45.848C62.7641 46.088 62.2735 46.208 61.7401 46.208C61.1375 46.208 60.5881 46.0613 60.0921 45.768C59.5961 45.4747 59.2015 45.08 58.9081 44.584C58.6148 44.088 58.4681 43.5387 58.4681 42.936ZM73.5516 38H74.6716V46H73.5516L73.5116 44.512C73.2503 45.0187 72.885 45.4293 72.4156 45.744C71.9463 46.0533 71.3863 46.208 70.7356 46.208C70.149 46.208 69.5996 46.0987 69.0876 45.88C68.5756 45.656 68.125 45.3493 67.7356 44.96C67.3463 44.5707 67.0423 44.12 66.8236 43.608C66.605 43.096 66.4956 42.5467 66.4956 41.96C66.4956 41.384 66.6023 40.8427 66.8156 40.336C67.0343 39.8293 67.333 39.384 67.7116 39C68.0956 38.616 68.5383 38.3173 69.0396 38.104C69.5463 37.8853 70.0876 37.776 70.6636 37.776C71.3303 37.776 71.9116 37.936 72.4076 38.256C72.9036 38.5707 73.2983 38.984 73.5916 39.496L73.5516 38ZM70.7116 45.12C71.2823 45.12 71.773 44.9813 72.1836 44.704C72.5943 44.4213 72.909 44.0427 73.1276 43.568C73.3516 43.0933 73.4636 42.5707 73.4636 42C73.4636 41.4133 73.3516 40.8853 73.1276 40.416C72.9036 39.9413 72.5863 39.5653 72.1756 39.288C71.765 39.0107 71.277 38.872 70.7116 38.872C70.1463 38.872 69.629 39.0133 69.1596 39.296C68.6956 39.5733 68.325 39.9493 68.0476 40.424C67.7756 40.8987 67.6396 41.424 67.6396 42C67.6396 42.5813 67.781 43.1093 68.0636 43.584C68.3463 44.0533 68.7196 44.4267 69.1836 44.704C69.653 44.9813 70.1623 45.12 70.7116 45.12ZM76.3819 46V34H77.5019V46H76.3819ZM85.7445 46.152C85.3072 46.1413 84.8805 46.0613 84.4645 45.912C84.0485 45.7627 83.6858 45.56 83.3765 45.304C83.0672 45.048 82.8458 44.7573 82.7125 44.432L83.6805 44.016C83.7658 44.224 83.9232 44.416 84.1525 44.592C84.3872 44.7627 84.6538 44.9013 84.9525 45.008C85.2512 45.1093 85.5472 45.16 85.8405 45.16C86.1658 45.16 86.4698 45.1067 86.7525 45C87.0352 44.8933 87.2645 44.7413 87.4405 44.544C87.6218 44.3413 87.7125 44.104 87.7125 43.832C87.7125 43.5387 87.6165 43.3093 87.4245 43.144C87.2325 42.9733 86.9898 42.84 86.6965 42.744C86.4032 42.6427 86.1018 42.5467 85.7925 42.456C85.2272 42.3013 84.7285 42.1307 84.2965 41.944C83.8645 41.7573 83.5258 41.52 83.2805 41.232C83.0405 40.9387 82.9205 40.5627 82.9205 40.104C82.9205 39.6187 83.0565 39.2 83.3285 38.848C83.6058 38.4907 83.9658 38.216 84.4085 38.024C84.8565 37.8267 85.3338 37.728 85.8405 37.728C86.4912 37.728 87.0832 37.8693 87.6165 38.152C88.1552 38.4347 88.5445 38.8107 88.7845 39.28L87.8805 39.816C87.7845 39.5973 87.6325 39.408 87.4245 39.248C87.2165 39.088 86.9792 38.9627 86.7125 38.872C86.4512 38.7813 86.1845 38.7333 85.9125 38.728C85.5712 38.7227 85.2538 38.7733 84.9605 38.88C84.6672 38.9813 84.4298 39.1333 84.2485 39.336C84.0725 39.5387 83.9845 39.7867 83.9845 40.08C83.9845 40.3733 84.0725 40.5973 84.2485 40.752C84.4245 40.9013 84.6618 41.024 84.9605 41.12C85.2645 41.2107 85.6058 41.3173 85.9845 41.44C86.4698 41.5947 86.9258 41.7707 87.3525 41.968C87.7792 42.1653 88.1232 42.4107 88.3845 42.704C88.6458 42.9973 88.7738 43.368 88.7685 43.816C88.7685 44.296 88.6245 44.7147 88.3365 45.072C88.0485 45.4293 87.6752 45.704 87.2165 45.896C86.7578 46.0827 86.2672 46.168 85.7445 46.152ZM96.661 38H97.781V46H96.661L96.621 44.512C96.3597 45.0187 95.9943 45.4293 95.525 45.744C95.0557 46.0533 94.4957 46.208 93.845 46.208C93.2583 46.208 92.709 46.0987 92.197 45.88C91.685 45.656 91.2343 45.3493 90.845 44.96C90.4557 44.5707 90.1517 44.12 89.933 43.608C89.7143 43.096 89.605 42.5467 89.605 41.96C89.605 41.384 89.7117 40.8427 89.925 40.336C90.1437 39.8293 90.4423 39.384 90.821 39C91.205 38.616 91.6477 38.3173 92.149 38.104C92.6557 37.8853 93.197 37.776 93.773 37.776C94.4397 37.776 95.021 37.936 95.517 38.256C96.013 38.5707 96.4077 38.984 96.701 39.496L96.661 38ZM93.821 45.12C94.3917 45.12 94.8823 44.9813 95.293 44.704C95.7037 44.4213 96.0183 44.0427 96.237 43.568C96.461 43.0933 96.573 42.5707 96.573 42C96.573 41.4133 96.461 40.8853 96.237 40.416C96.013 39.9413 95.6957 39.5653 95.285 39.288C94.8743 39.0107 94.3863 38.872 93.821 38.872C93.2557 38.872 92.7383 39.0133 92.269 39.296C91.805 39.5733 91.4343 39.9493 91.157 40.424C90.885 40.8987 90.749 41.424 90.749 42C90.749 42.5813 90.8903 43.1093 91.173 43.584C91.4557 44.0533 91.829 44.4267 92.293 44.704C92.7623 44.9813 93.2717 45.12 93.821 45.12ZM103.09 46H101.666L98.7456 37.976H99.9376L102.378 44.688L104.818 37.976H106.01L103.09 46ZM107.335 38H108.455V46H107.335V38ZM107.903 36.6C107.722 36.6 107.567 36.5413 107.439 36.424C107.316 36.3013 107.255 36.1493 107.255 35.968C107.255 35.7867 107.316 35.6373 107.439 35.52C107.567 35.3973 107.722 35.336 107.903 35.336C108.079 35.336 108.228 35.3973 108.351 35.52C108.479 35.6373 108.543 35.7867 108.543 35.968C108.543 36.1493 108.482 36.3013 108.359 36.424C108.236 36.5413 108.084 36.6 107.903 36.6ZM117.327 41.048V46H116.207V41.272C116.207 40.8347 116.1 40.4373 115.887 40.08C115.673 39.7227 115.388 39.4373 115.031 39.224C114.673 39.0107 114.276 38.904 113.839 38.904C113.407 38.904 113.009 39.0107 112.647 39.224C112.289 39.4373 112.004 39.7227 111.791 40.08C111.577 40.4373 111.471 40.8347 111.471 41.272V46H110.351V38H111.471V39.104C111.753 38.6987 112.121 38.376 112.575 38.136C113.028 37.896 113.521 37.776 114.055 37.776C114.657 37.776 115.207 37.9227 115.703 38.216C116.199 38.5093 116.593 38.904 116.887 39.4C117.18 39.896 117.327 40.4453 117.327 41.048ZM125.133 38H126.253V46.296C126.253 46.808 126.141 47.288 125.917 47.736C125.698 48.184 125.399 48.576 125.021 48.912C124.647 49.2533 124.221 49.52 123.741 49.712C123.261 49.904 122.762 50 122.245 50C121.69 50 121.154 49.872 120.637 49.616C120.119 49.3653 119.669 49.0293 119.285 48.608C118.906 48.1867 118.637 47.72 118.477 47.208L119.509 46.736C119.61 47.136 119.799 47.496 120.077 47.816C120.359 48.1413 120.69 48.3973 121.069 48.584C121.453 48.776 121.845 48.872 122.245 48.872C122.613 48.872 122.967 48.8027 123.309 48.664C123.655 48.5307 123.965 48.3467 124.237 48.112C124.514 47.8773 124.733 47.6027 124.893 47.288C125.053 46.9787 125.133 46.648 125.133 46.296V44.528C124.855 45.0293 124.479 45.4347 124.005 45.744C123.535 46.0533 122.989 46.208 122.365 46.208C121.805 46.208 121.277 46.0987 120.781 45.88C120.29 45.6613 119.858 45.36 119.485 44.976C119.111 44.5867 118.818 44.1387 118.605 43.632C118.397 43.1253 118.293 42.5813 118.293 42C118.293 41.4187 118.397 40.8747 118.605 40.368C118.818 39.856 119.111 39.408 119.485 39.024C119.858 38.6347 120.29 38.3307 120.781 38.112C121.277 37.8933 121.805 37.784 122.365 37.784C122.989 37.784 123.535 37.9387 124.005 38.248C124.479 38.552 124.855 38.9573 125.133 39.464V38ZM122.373 45.12C122.927 45.12 123.405 44.976 123.805 44.688C124.21 44.4 124.522 44.0187 124.741 43.544C124.959 43.0693 125.069 42.5547 125.069 42C125.069 41.4293 124.957 40.9093 124.733 40.44C124.514 39.9653 124.202 39.5867 123.797 39.304C123.391 39.016 122.917 38.872 122.373 38.872C121.829 38.872 121.333 39.0133 120.885 39.296C120.442 39.5733 120.09 39.9493 119.829 40.424C119.567 40.8987 119.437 41.424 119.437 42C119.437 42.576 119.57 43.1013 119.837 43.576C120.103 44.0453 120.458 44.4213 120.901 44.704C121.349 44.9813 121.839 45.12 122.373 45.12ZM130.651 46.152C130.213 46.1413 129.787 46.0613 129.371 45.912C128.955 45.7627 128.592 45.56 128.283 45.304C127.973 45.048 127.752 44.7573 127.619 44.432L128.587 44.016C128.672 44.224 128.829 44.416 129.059 44.592C129.293 44.7627 129.56 44.9013 129.859 45.008C130.157 45.1093 130.453 45.16 130.747 45.16C131.072 45.16 131.376 45.1067 131.659 45C131.941 44.8933 132.171 44.7413 132.347 44.544C132.528 44.3413 132.619 44.104 132.619 43.832C132.619 43.5387 132.523 43.3093 132.331 43.144C132.139 42.9733 131.896 42.84 131.603 42.744C131.309 42.6427 131.008 42.5467 130.699 42.456C130.133 42.3013 129.635 42.1307 129.203 41.944C128.771 41.7573 128.432 41.52 128.187 41.232C127.947 40.9387 127.827 40.5627 127.827 40.104C127.827 39.6187 127.963 39.2 128.235 38.848C128.512 38.4907 128.872 38.216 129.315 38.024C129.763 37.8267 130.24 37.728 130.747 37.728C131.397 37.728 131.989 37.8693 132.523 38.152C133.061 38.4347 133.451 38.8107 133.691 39.28L132.787 39.816C132.691 39.5973 132.539 39.408 132.331 39.248C132.123 39.088 131.885 38.9627 131.619 38.872C131.357 38.7813 131.091 38.7333 130.819 38.728C130.477 38.7227 130.16 38.7733 129.867 38.88C129.573 38.9813 129.336 39.1333 129.155 39.336C128.979 39.5387 128.891 39.7867 128.891 40.08C128.891 40.3733 128.979 40.5973 129.155 40.752C129.331 40.9013 129.568 41.024 129.867 41.12C130.171 41.2107 130.512 41.3173 130.891 41.44C131.376 41.5947 131.832 41.7707 132.259 41.968C132.685 42.1653 133.029 42.4107 133.291 42.704C133.552 42.9973 133.68 43.368 133.675 43.816C133.675 44.296 133.531 44.7147 133.243 45.072C132.955 45.4293 132.581 45.704 132.123 45.896C131.664 46.0827 131.173 46.168 130.651 46.152ZM142.418 46.208C141.682 46.208 141.01 46.0187 140.402 45.64C139.799 45.2613 139.316 44.7547 138.954 44.12C138.596 43.48 138.418 42.7733 138.418 42C138.418 41.4133 138.522 40.8667 138.73 40.36C138.938 39.848 139.223 39.4 139.586 39.016C139.954 38.6267 140.38 38.3227 140.866 38.104C141.351 37.8853 141.868 37.776 142.418 37.776C143.154 37.776 143.823 37.9653 144.426 38.344C145.034 38.7227 145.516 39.232 145.874 39.872C146.236 40.512 146.418 41.2213 146.418 42C146.418 42.5813 146.314 43.1253 146.106 43.632C145.898 44.1387 145.61 44.5867 145.242 44.976C144.879 45.36 144.455 45.6613 143.97 45.88C143.49 46.0987 142.972 46.208 142.418 46.208ZM142.418 45.088C142.962 45.088 143.45 44.9467 143.882 44.664C144.319 44.376 144.663 43.9973 144.914 43.528C145.17 43.0587 145.298 42.5493 145.298 42C145.298 41.44 145.17 40.9253 144.914 40.456C144.658 39.9813 144.311 39.6027 143.874 39.32C143.442 39.0373 142.956 38.896 142.418 38.896C141.874 38.896 141.383 39.04 140.946 39.328C140.514 39.6107 140.17 39.9867 139.914 40.456C139.663 40.9253 139.538 41.44 139.538 42C139.538 42.576 139.668 43.0987 139.93 43.568C140.191 44.032 140.54 44.4027 140.978 44.68C141.415 44.952 141.895 45.088 142.418 45.088ZM149.507 35.912V38H151.907V39.12H149.507V46H148.387V39.12H147.291V38H148.387V35.912C148.387 35.5227 148.48 35.1707 148.667 34.856C148.859 34.536 149.115 34.2827 149.435 34.096C149.755 33.904 150.109 33.808 150.499 33.808C150.781 33.808 151.053 33.864 151.315 33.976C151.581 34.088 151.819 34.2533 152.027 34.472L151.227 35.264C151.141 35.1573 151.032 35.0747 150.899 35.016C150.771 34.9573 150.637 34.928 150.499 34.928C150.227 34.928 149.992 35.024 149.795 35.216C149.603 35.408 149.507 35.64 149.507 35.912ZM156.718 42.936V38H157.838V42.712C157.838 43.1493 157.945 43.5467 158.158 43.904C158.371 44.2613 158.657 44.5467 159.014 44.76C159.377 44.9733 159.774 45.08 160.206 45.08C160.643 45.08 161.038 44.9733 161.39 44.76C161.747 44.5467 162.033 44.2613 162.246 43.904C162.459 43.5467 162.566 43.1493 162.566 42.712V38H163.686L163.694 46H162.574L162.566 44.88C162.283 45.2853 161.915 45.608 161.462 45.848C161.014 46.088 160.523 46.208 159.99 46.208C159.387 46.208 158.838 46.0613 158.342 45.768C157.846 45.4747 157.451 45.08 157.158 44.584C156.865 44.088 156.718 43.5387 156.718 42.936ZM166.252 50H165.132V38H166.252V39.496C166.529 38.9893 166.908 38.5787 167.388 38.264C167.868 37.9493 168.439 37.792 169.1 37.792C169.681 37.792 170.225 37.9013 170.732 38.12C171.244 38.3387 171.692 38.6427 172.076 39.032C172.46 39.416 172.761 39.8613 172.98 40.368C173.199 40.8747 173.308 41.4187 173.308 42C173.308 42.5813 173.199 43.128 172.98 43.64C172.761 44.152 172.46 44.6027 172.076 44.992C171.692 45.376 171.244 45.6773 170.732 45.896C170.225 46.1147 169.681 46.224 169.1 46.224C168.439 46.224 167.868 46.0667 167.388 45.752C166.908 45.4373 166.529 45.0267 166.252 44.52V50ZM169.092 38.88C168.532 38.88 168.044 39.0213 167.628 39.304C167.217 39.5813 166.9 39.9547 166.676 40.424C166.452 40.8933 166.34 41.4187 166.34 42C166.34 42.5707 166.449 43.0933 166.668 43.568C166.892 44.0427 167.209 44.4213 167.62 44.704C168.036 44.9867 168.527 45.128 169.092 45.128C169.647 45.128 170.156 44.9893 170.62 44.712C171.089 44.4347 171.465 44.0613 171.748 43.592C172.031 43.1173 172.172 42.5867 172.172 42C172.172 41.4293 172.033 40.9093 171.756 40.44C171.479 39.9653 171.108 39.5867 170.644 39.304C170.18 39.0213 169.663 38.88 169.092 38.88ZM182.673 39.12H180.761L180.753 46H179.633L179.641 39.12H178.193V38H179.641L179.633 35.488H180.753L180.761 38H182.673V39.12ZM187.402 46.208C186.666 46.208 185.994 46.0187 185.386 45.64C184.783 45.2613 184.301 44.7547 183.938 44.12C183.581 43.48 183.402 42.7733 183.402 42C183.402 41.4133 183.506 40.8667 183.714 40.36C183.922 39.848 184.207 39.4 184.57 39.016C184.938 38.6267 185.365 38.3227 185.85 38.104C186.335 37.8853 186.853 37.776 187.402 37.776C188.138 37.776 188.807 37.9653 189.41 38.344C190.018 38.7227 190.501 39.232 190.858 39.872C191.221 40.512 191.402 41.2213 191.402 42C191.402 42.5813 191.298 43.1253 191.09 43.632C190.882 44.1387 190.594 44.5867 190.226 44.976C189.863 45.36 189.439 45.6613 188.954 45.88C188.474 46.0987 187.957 46.208 187.402 46.208ZM187.402 45.088C187.946 45.088 188.434 44.9467 188.866 44.664C189.303 44.376 189.647 43.9973 189.898 43.528C190.154 43.0587 190.282 42.5493 190.282 42C190.282 41.44 190.154 40.9253 189.898 40.456C189.642 39.9813 189.295 39.6027 188.858 39.32C188.426 39.0373 187.941 38.896 187.402 38.896C186.858 38.896 186.367 39.04 185.93 39.328C185.498 39.6107 185.154 39.9867 184.898 40.456C184.647 40.9253 184.522 41.44 184.522 42C184.522 42.576 184.653 43.0987 184.914 43.568C185.175 44.032 185.525 44.4027 185.962 44.68C186.399 44.952 186.879 45.088 187.402 45.088ZM201.191 46V42.856H196.359V41.72L200.903 34.8H202.311V41.736H203.487V42.856H202.311V46H201.191ZM197.687 41.72L201.191 41.736L201.167 36.4L197.687 41.72ZM208.745 46.208C208.073 46.208 207.473 46.0587 206.945 45.76C206.417 45.456 205.966 45.0373 205.593 44.504C205.219 43.9707 204.934 43.3547 204.737 42.656C204.545 41.952 204.449 41.2 204.449 40.4C204.449 39.6 204.545 38.848 204.737 38.144C204.934 37.44 205.219 36.824 205.593 36.296C205.966 35.7627 206.417 35.3467 206.945 35.048C207.473 34.744 208.073 34.592 208.745 34.592C209.411 34.592 210.009 34.744 210.537 35.048C211.065 35.3467 211.513 35.7627 211.881 36.296C212.249 36.824 212.529 37.44 212.721 38.144C212.918 38.848 213.017 39.6 213.017 40.4C213.017 41.2 212.918 41.952 212.721 42.656C212.529 43.3547 212.249 43.9707 211.881 44.504C211.513 45.0373 211.065 45.456 210.537 45.76C210.009 46.0587 209.411 46.208 208.745 46.208ZM208.745 45.088C209.449 45.088 210.038 44.872 210.513 44.44C210.993 44.008 211.353 43.4373 211.593 42.728C211.833 42.0133 211.953 41.2373 211.953 40.4C211.953 39.5147 211.827 38.72 211.577 38.016C211.331 37.3067 210.969 36.7467 210.489 36.336C210.014 35.92 209.433 35.712 208.745 35.712C208.201 35.712 207.726 35.8373 207.321 36.088C206.915 36.3387 206.579 36.6827 206.313 37.12C206.046 37.5573 205.846 38.0587 205.713 38.624C205.579 39.184 205.513 39.776 205.513 40.4C205.513 41.2427 205.635 42.0213 205.881 42.736C206.126 43.4453 206.489 44.016 206.969 44.448C207.449 44.8747 208.041 45.088 208.745 45.088ZM214.74 46L221.204 34.8H222.5L216.036 46H214.74ZM216.052 39.176C215.7 39.176 215.38 39.0907 215.092 38.92C214.804 38.7493 214.572 38.52 214.396 38.232C214.225 37.9387 214.14 37.616 214.14 37.264C214.14 36.9013 214.225 36.576 214.396 36.288C214.572 36 214.804 35.7707 215.092 35.6C215.385 35.4293 215.705 35.344 216.052 35.344C216.404 35.344 216.724 35.432 217.012 35.608C217.3 35.7787 217.529 36.008 217.7 36.296C217.876 36.584 217.964 36.9067 217.964 37.264C217.964 37.6213 217.876 37.944 217.7 38.232C217.529 38.52 217.297 38.7493 217.004 38.92C216.716 39.0907 216.399 39.176 216.052 39.176ZM216.052 38.32C216.351 38.32 216.601 38.2187 216.804 38.016C217.007 37.808 217.108 37.5573 217.108 37.264C217.108 36.9653 217.007 36.7147 216.804 36.512C216.601 36.304 216.351 36.2 216.052 36.2C215.759 36.2 215.508 36.304 215.3 36.512C215.097 36.7147 214.996 36.9653 214.996 37.264C214.996 37.5573 215.097 37.808 215.3 38.016C215.508 38.2187 215.759 38.32 216.052 38.32ZM221.204 45.464C220.852 45.464 220.529 45.376 220.236 45.2C219.948 45.0187 219.716 44.784 219.54 44.496C219.369 44.2027 219.284 43.8853 219.284 43.544C219.284 43.1867 219.372 42.864 219.548 42.576C219.724 42.2827 219.956 42.0507 220.244 41.88C220.537 41.7093 220.857 41.624 221.204 41.624C221.561 41.624 221.884 41.712 222.172 41.888C222.46 42.064 222.689 42.2987 222.86 42.592C223.031 42.88 223.116 43.1973 223.116 43.544C223.116 43.896 223.031 44.2187 222.86 44.512C222.689 44.8 222.457 45.032 222.164 45.208C221.876 45.3787 221.556 45.464 221.204 45.464ZM221.204 44.608C221.492 44.608 221.74 44.504 221.948 44.296C222.156 44.088 222.26 43.8373 222.26 43.544C222.26 43.2507 222.156 43 221.948 42.792C221.74 42.584 221.492 42.48 221.204 42.48C220.911 42.48 220.657 42.584 220.444 42.792C220.236 43 220.132 43.2507 220.132 43.544C220.132 43.8373 220.236 44.088 220.444 44.296C220.657 44.504 220.911 44.608 221.204 44.608ZM34.48 67.208C33.744 67.208 33.072 67.0187 32.464 66.64C31.8613 66.2613 31.3787 65.7547 31.016 65.12C30.6587 64.48 30.48 63.7733 30.48 63C30.48 62.4133 30.584 61.8667 30.792 61.36C31 60.848 31.2853 60.4 31.648 60.016C32.016 59.6267 32.4427 59.3227 32.928 59.104C33.4133 58.8853 33.9307 58.776 34.48 58.776C35.216 58.776 35.8853 58.9653 36.488 59.344C37.096 59.7227 37.5787 60.232 37.936 60.872C38.2987 61.512 38.48 62.2213 38.48 63C38.48 63.5813 38.376 64.1253 38.168 64.632C37.96 65.1387 37.672 65.5867 37.304 65.976C36.9413 66.36 36.5173 66.6613 36.032 66.88C35.552 67.0987 35.0347 67.208 34.48 67.208ZM34.48 66.088C35.024 66.088 35.512 65.9467 35.944 65.664C36.3813 65.376 36.7253 64.9973 36.976 64.528C37.232 64.0587 37.36 63.5493 37.36 63C37.36 62.44 37.232 61.9253 36.976 61.456C36.72 60.9813 36.3733 60.6027 35.936 60.32C35.504 60.0373 35.0187 59.896 34.48 59.896C33.936 59.896 33.4453 60.04 33.008 60.328C32.576 60.6107 32.232 60.9867 31.976 61.456C31.7253 61.9253 31.6 62.44 31.6 63C31.6 63.576 31.7307 64.0987 31.992 64.568C32.2533 65.032 32.6027 65.4027 33.04 65.68C33.4773 65.952 33.9573 66.088 34.48 66.088ZM41.5691 56.912V59H43.9691V60.12H41.5691V67H40.4491V60.12H39.3531V59H40.4491V56.912C40.4491 56.5227 40.5425 56.1707 40.7291 55.856C40.9211 55.536 41.1771 55.2827 41.4971 55.096C41.8171 54.904 42.1718 54.808 42.5611 54.808C42.8438 54.808 43.1158 54.864 43.3771 54.976C43.6438 55.088 43.8811 55.2533 44.0891 55.472L43.2891 56.264C43.2038 56.1573 43.0945 56.0747 42.9611 56.016C42.8331 55.9573 42.6998 55.928 42.5611 55.928C42.2891 55.928 42.0545 56.024 41.8571 56.216C41.6651 56.408 41.5691 56.64 41.5691 56.912ZM51.5726 67.152C51.1353 67.1413 50.7086 67.0613 50.2926 66.912C49.8766 66.7627 49.514 66.56 49.2046 66.304C48.8953 66.048 48.674 65.7573 48.5406 65.432L49.5086 65.016C49.594 65.224 49.7513 65.416 49.9806 65.592C50.2153 65.7627 50.482 65.9013 50.7806 66.008C51.0793 66.1093 51.3753 66.16 51.6686 66.16C51.994 66.16 52.298 66.1067 52.5806 66C52.8633 65.8933 53.0926 65.7413 53.2686 65.544C53.45 65.3413 53.5406 65.104 53.5406 64.832C53.5406 64.5387 53.4446 64.3093 53.2526 64.144C53.0606 63.9733 52.818 63.84 52.5246 63.744C52.2313 63.6427 51.93 63.5467 51.6206 63.456C51.0553 63.3013 50.5566 63.1307 50.1246 62.944C49.6926 62.7573 49.354 62.52 49.1086 62.232C48.8686 61.9387 48.7486 61.5627 48.7486 61.104C48.7486 60.6187 48.8846 60.2 49.1566 59.848C49.434 59.4907 49.794 59.216 50.2366 59.024C50.6846 58.8267 51.162 58.728 51.6686 58.728C52.3193 58.728 52.9113 58.8693 53.4446 59.152C53.9833 59.4347 54.3726 59.8107 54.6126 60.28L53.7086 60.816C53.6126 60.5973 53.4606 60.408 53.2526 60.248C53.0446 60.088 52.8073 59.9627 52.5406 59.872C52.2793 59.7813 52.0126 59.7333 51.7406 59.728C51.3993 59.7227 51.082 59.7733 50.7886 59.88C50.4953 59.9813 50.258 60.1333 50.0766 60.336C49.9006 60.5387 49.8126 60.7867 49.8126 61.08C49.8126 61.3733 49.9006 61.5973 50.0766 61.752C50.2526 61.9013 50.49 62.024 50.7886 62.12C51.0926 62.2107 51.434 62.3173 51.8126 62.44C52.298 62.5947 52.754 62.7707 53.1806 62.968C53.6073 63.1653 53.9513 63.4107 54.2126 63.704C54.474 63.9973 54.602 64.368 54.5966 64.816C54.5966 65.296 54.4526 65.7147 54.1646 66.072C53.8766 66.4293 53.5033 66.704 53.0446 66.896C52.586 67.0827 52.0953 67.168 51.5726 67.152ZM55.6556 63.936V59H56.7756V63.712C56.7756 64.1493 56.8823 64.5467 57.0956 64.904C57.309 65.2613 57.5943 65.5467 57.9516 65.76C58.3143 65.9733 58.7116 66.08 59.1436 66.08C59.581 66.08 59.9756 65.9733 60.3276 65.76C60.685 65.5467 60.9703 65.2613 61.1836 64.904C61.397 64.5467 61.5036 64.1493 61.5036 63.712V59H62.6236L62.6316 67H61.5116L61.5036 65.88C61.221 66.2853 60.853 66.608 60.3996 66.848C59.9516 67.088 59.461 67.208 58.9276 67.208C58.325 67.208 57.7756 67.0613 57.2796 66.768C56.7836 66.4747 56.389 66.08 56.0956 65.584C55.8023 65.088 55.6556 64.5387 55.6556 63.936ZM65.1894 71H64.0694V59H65.1894V60.496C65.4667 59.9893 65.8454 59.5787 66.3254 59.264C66.8054 58.9493 67.376 58.792 68.0374 58.792C68.6187 58.792 69.1627 58.9013 69.6694 59.12C70.1814 59.3387 70.6294 59.6427 71.0134 60.032C71.3974 60.416 71.6987 60.8613 71.9174 61.368C72.136 61.8747 72.2454 62.4187 72.2454 63C72.2454 63.5813 72.136 64.128 71.9174 64.64C71.6987 65.152 71.3974 65.6027 71.0134 65.992C70.6294 66.376 70.1814 66.6773 69.6694 66.896C69.1627 67.1147 68.6187 67.224 68.0374 67.224C67.376 67.224 66.8054 67.0667 66.3254 66.752C65.8454 66.4373 65.4667 66.0267 65.1894 65.52V71ZM68.0294 59.88C67.4694 59.88 66.9814 60.0213 66.5654 60.304C66.1547 60.5813 65.8374 60.9547 65.6134 61.424C65.3894 61.8933 65.2774 62.4187 65.2774 63C65.2774 63.5707 65.3867 64.0933 65.6054 64.568C65.8294 65.0427 66.1467 65.4213 66.5574 65.704C66.9734 65.9867 67.464 66.128 68.0294 66.128C68.584 66.128 69.0934 65.9893 69.5574 65.712C70.0267 65.4347 70.4027 65.0613 70.6854 64.592C70.968 64.1173 71.1094 63.5867 71.1094 63C71.1094 62.4293 70.9707 61.9093 70.6934 61.44C70.416 60.9653 70.0454 60.5867 69.5814 60.304C69.1174 60.0213 68.6 59.88 68.0294 59.88ZM74.7206 71H73.6006V59H74.7206V60.496C74.998 59.9893 75.3766 59.5787 75.8566 59.264C76.3366 58.9493 76.9073 58.792 77.5686 58.792C78.15 58.792 78.694 58.9013 79.2006 59.12C79.7126 59.3387 80.1606 59.6427 80.5446 60.032C80.9286 60.416 81.23 60.8613 81.4486 61.368C81.6673 61.8747 81.7766 62.4187 81.7766 63C81.7766 63.5813 81.6673 64.128 81.4486 64.64C81.23 65.152 80.9286 65.6027 80.5446 65.992C80.1606 66.376 79.7126 66.6773 79.2006 66.896C78.694 67.1147 78.15 67.224 77.5686 67.224C76.9073 67.224 76.3366 67.0667 75.8566 66.752C75.3766 66.4373 74.998 66.0267 74.7206 65.52V71ZM77.5606 59.88C77.0006 59.88 76.5126 60.0213 76.0966 60.304C75.686 60.5813 75.3686 60.9547 75.1446 61.424C74.9206 61.8933 74.8086 62.4187 74.8086 63C74.8086 63.5707 74.918 64.0933 75.1366 64.568C75.3606 65.0427 75.678 65.4213 76.0886 65.704C76.5046 65.9867 76.9953 66.128 77.5606 66.128C78.1153 66.128 78.6246 65.9893 79.0886 65.712C79.558 65.4347 79.934 65.0613 80.2166 64.592C80.4993 64.1173 80.6406 63.5867 80.6406 63C80.6406 62.4293 80.502 61.9093 80.2246 61.44C79.9473 60.9653 79.5766 60.5867 79.1126 60.304C78.6486 60.0213 78.1313 59.88 77.5606 59.88ZM86.5738 67.208C85.8378 67.208 85.1658 67.0187 84.5578 66.64C83.9551 66.2613 83.4724 65.7547 83.1098 65.12C82.7524 64.48 82.5738 63.7733 82.5738 63C82.5738 62.4133 82.6778 61.8667 82.8858 61.36C83.0938 60.848 83.3791 60.4 83.7418 60.016C84.1098 59.6267 84.5364 59.3227 85.0218 59.104C85.5071 58.8853 86.0244 58.776 86.5738 58.776C87.3098 58.776 87.9791 58.9653 88.5818 59.344C89.1898 59.7227 89.6724 60.232 90.0298 60.872C90.3924 61.512 90.5738 62.2213 90.5738 63C90.5738 63.5813 90.4698 64.1253 90.2618 64.632C90.0538 65.1387 89.7658 65.5867 89.3978 65.976C89.0351 66.36 88.6111 66.6613 88.1258 66.88C87.6458 67.0987 87.1284 67.208 86.5738 67.208ZM86.5738 66.088C87.1178 66.088 87.6058 65.9467 88.0378 65.664C88.4751 65.376 88.8191 64.9973 89.0698 64.528C89.3258 64.0587 89.4538 63.5493 89.4538 63C89.4538 62.44 89.3258 61.9253 89.0698 61.456C88.8138 60.9813 88.4671 60.6027 88.0298 60.32C87.5978 60.0373 87.1124 59.896 86.5738 59.896C86.0298 59.896 85.5391 60.04 85.1018 60.328C84.6698 60.6107 84.3258 60.9867 84.0698 61.456C83.8191 61.9253 83.6938 62.44 83.6938 63C83.6938 63.576 83.8244 64.0987 84.0858 64.568C84.3471 65.032 84.6964 65.4027 85.1338 65.68C85.5711 65.952 86.0511 66.088 86.5738 66.088ZM91.9288 67V59H93.0488V60.104C93.3314 59.6987 93.6994 59.376 94.1528 59.136C94.6061 58.896 95.0994 58.776 95.6328 58.776C95.9421 58.776 96.2408 58.816 96.5288 58.896L96.0728 60.008C95.8488 59.9387 95.6301 59.904 95.4168 59.904C94.9848 59.904 94.5874 60.0107 94.2248 60.224C93.8674 60.4373 93.5821 60.7227 93.3688 61.08C93.1554 61.4373 93.0488 61.8347 93.0488 62.272V67H91.9288ZM101.736 60.12H99.8235L99.8155 67H98.6955L98.7035 60.12H97.2555V59H98.7035L98.6955 56.488H99.8155L99.8235 59H101.736V60.12ZM109.479 67.152C109.042 67.1413 108.615 67.0613 108.199 66.912C107.783 66.7627 107.42 66.56 107.111 66.304C106.802 66.048 106.58 65.7573 106.447 65.432L107.415 65.016C107.5 65.224 107.658 65.416 107.887 65.592C108.122 65.7627 108.388 65.9013 108.687 66.008C108.986 66.1093 109.282 66.16 109.575 66.16C109.9 66.16 110.204 66.1067 110.487 66C110.77 65.8933 110.999 65.7413 111.175 65.544C111.356 65.3413 111.447 65.104 111.447 64.832C111.447 64.5387 111.351 64.3093 111.159 64.144C110.967 63.9733 110.724 63.84 110.431 63.744C110.138 63.6427 109.836 63.5467 109.527 63.456C108.962 63.3013 108.463 63.1307 108.031 62.944C107.599 62.7573 107.26 62.52 107.015 62.232C106.775 61.9387 106.655 61.5627 106.655 61.104C106.655 60.6187 106.791 60.2 107.063 59.848C107.34 59.4907 107.7 59.216 108.143 59.024C108.591 58.8267 109.068 58.728 109.575 58.728C110.226 58.728 110.818 58.8693 111.351 59.152C111.89 59.4347 112.279 59.8107 112.519 60.28L111.615 60.816C111.519 60.5973 111.367 60.408 111.159 60.248C110.951 60.088 110.714 59.9627 110.447 59.872C110.186 59.7813 109.919 59.7333 109.647 59.728C109.306 59.7227 108.988 59.7733 108.695 59.88C108.402 59.9813 108.164 60.1333 107.983 60.336C107.807 60.5387 107.719 60.7867 107.719 61.08C107.719 61.3733 107.807 61.5973 107.983 61.752C108.159 61.9013 108.396 62.024 108.695 62.12C108.999 62.2107 109.34 62.3173 109.719 62.44C110.204 62.5947 110.66 62.7707 111.087 62.968C111.514 63.1653 111.858 63.4107 112.119 63.704C112.38 63.9973 112.508 64.368 112.503 64.816C112.503 65.296 112.359 65.7147 112.071 66.072C111.783 66.4293 111.41 66.704 110.951 66.896C110.492 67.0827 110.002 67.168 109.479 67.152ZM117.339 67.208C116.603 67.208 115.931 67.0187 115.323 66.64C114.721 66.2613 114.238 65.7547 113.875 65.12C113.518 64.48 113.339 63.7733 113.339 63C113.339 62.4133 113.443 61.8667 113.651 61.36C113.859 60.848 114.145 60.4 114.507 60.016C114.875 59.6267 115.302 59.3227 115.787 59.104C116.273 58.8853 116.79 58.776 117.339 58.776C117.931 58.776 118.475 58.8933 118.971 59.128C119.473 59.3627 119.902 59.6907 120.259 60.112C120.622 60.5333 120.894 61.0267 121.075 61.592C121.262 62.1573 121.339 62.768 121.307 63.424H114.523C114.587 63.9307 114.747 64.384 115.003 64.784C115.265 65.184 115.595 65.5013 115.995 65.736C116.401 65.9653 116.849 66.0827 117.339 66.088C117.873 66.088 118.353 65.9493 118.779 65.672C119.211 65.3947 119.558 65.0133 119.819 64.528L120.955 64.792C120.635 65.5013 120.153 66.0827 119.507 66.536C118.862 66.984 118.139 67.208 117.339 67.208ZM114.491 62.52H120.179C120.142 62.024 119.99 61.5707 119.723 61.16C119.462 60.744 119.123 60.4133 118.707 60.168C118.291 59.9173 117.835 59.792 117.339 59.792C116.843 59.792 116.39 59.9147 115.979 60.16C115.569 60.4 115.233 60.728 114.971 61.144C114.71 61.5547 114.55 62.0133 114.491 62.52ZM122.679 67V59H123.799V60.104C124.081 59.6987 124.449 59.376 124.903 59.136C125.356 58.896 125.849 58.776 126.383 58.776C126.692 58.776 126.991 58.816 127.279 58.896L126.823 60.008C126.599 59.9387 126.38 59.904 126.167 59.904C125.735 59.904 125.337 60.0107 124.975 60.224C124.617 60.4373 124.332 60.7227 124.119 61.08C123.905 61.4373 123.799 61.8347 123.799 62.272V67H122.679ZM132.262 67H130.838L127.918 58.976H129.11L131.549 65.688L133.99 58.976H135.182L132.262 67ZM136.507 59H137.627V67H136.507V59ZM137.075 57.6C136.894 57.6 136.739 57.5413 136.611 57.424C136.488 57.3013 136.427 57.1493 136.427 56.968C136.427 56.7867 136.488 56.6373 136.611 56.52C136.739 56.3973 136.894 56.336 137.075 56.336C137.251 56.336 137.4 56.3973 137.523 56.52C137.651 56.6373 137.715 56.7867 137.715 56.968C137.715 57.1493 137.654 57.3013 137.531 57.424C137.408 57.5413 137.256 57.6 137.075 57.6ZM145.188 64.992L146.188 65.536C145.825 66.0427 145.364 66.448 144.804 66.752C144.249 67.056 143.646 67.208 142.996 67.208C142.26 67.208 141.588 67.0187 140.98 66.64C140.377 66.2613 139.894 65.7547 139.532 65.12C139.174 64.48 138.996 63.7733 138.996 63C138.996 62.4133 139.1 61.8667 139.308 61.36C139.516 60.848 139.801 60.4 140.164 60.016C140.532 59.6267 140.958 59.3227 141.444 59.104C141.929 58.8853 142.446 58.776 142.996 58.776C143.646 58.776 144.249 58.928 144.804 59.232C145.364 59.536 145.825 59.944 146.188 60.456L145.188 60.992C144.91 60.64 144.577 60.3707 144.188 60.184C143.798 59.992 143.401 59.896 142.996 59.896C142.457 59.896 141.969 60.04 141.532 60.328C141.094 60.6107 140.748 60.9867 140.492 61.456C140.241 61.9253 140.116 62.44 140.116 63C140.116 63.56 140.244 64.0747 140.5 64.544C140.761 65.0133 141.11 65.3893 141.548 65.672C141.985 65.9493 142.468 66.088 142.996 66.088C143.433 66.088 143.844 65.9867 144.228 65.784C144.612 65.5813 144.932 65.3173 145.188 64.992ZM151.043 67.208C150.307 67.208 149.635 67.0187 149.027 66.64C148.424 66.2613 147.941 65.7547 147.579 65.12C147.221 64.48 147.043 63.7733 147.043 63C147.043 62.4133 147.147 61.8667 147.355 61.36C147.563 60.848 147.848 60.4 148.211 60.016C148.579 59.6267 149.005 59.3227 149.491 59.104C149.976 58.8853 150.493 58.776 151.043 58.776C151.635 58.776 152.179 58.8933 152.675 59.128C153.176 59.3627 153.605 59.6907 153.963 60.112C154.325 60.5333 154.597 61.0267 154.779 61.592C154.965 62.1573 155.043 62.768 155.01 63.424H148.227C148.291 63.9307 148.451 64.384 148.707 64.784C148.968 65.184 149.299 65.5013 149.699 65.736C150.104 65.9653 150.552 66.0827 151.043 66.088C151.576 66.088 152.056 65.9493 152.483 65.672C152.915 65.3947 153.261 65.0133 153.523 64.528L154.659 64.792C154.339 65.5013 153.856 66.0827 153.211 66.536C152.565 66.984 151.843 67.208 151.043 67.208ZM148.195 62.52H153.883C153.845 62.024 153.693 61.5707 153.427 61.16C153.165 60.744 152.827 60.4133 152.411 60.168C151.995 59.9173 151.539 59.792 151.043 59.792C150.547 59.792 150.093 59.9147 149.683 60.16C149.272 60.4 148.936 60.728 148.674 61.144C148.413 61.5547 148.253 62.0133 148.195 62.52ZM166.016 64.992L167.016 65.536C166.653 66.0427 166.192 66.448 165.632 66.752C165.077 67.056 164.474 67.208 163.824 67.208C163.088 67.208 162.416 67.0187 161.808 66.64C161.205 66.2613 160.722 65.7547 160.36 65.12C160.002 64.48 159.824 63.7733 159.824 63C159.824 62.4133 159.928 61.8667 160.136 61.36C160.344 60.848 160.629 60.4 160.992 60.016C161.36 59.6267 161.786 59.3227 162.272 59.104C162.757 58.8853 163.274 58.776 163.824 58.776C164.474 58.776 165.077 58.928 165.632 59.232C166.192 59.536 166.653 59.944 167.016 60.456L166.016 60.992C165.738 60.64 165.405 60.3707 165.016 60.184C164.626 59.992 164.229 59.896 163.824 59.896C163.285 59.896 162.797 60.04 162.36 60.328C161.922 60.6107 161.576 60.9867 161.32 61.456C161.069 61.9253 160.944 62.44 160.944 63C160.944 63.56 161.072 64.0747 161.328 64.544C161.589 65.0133 161.938 65.3893 162.376 65.672C162.813 65.9493 163.296 66.088 163.824 66.088C164.261 66.088 164.672 65.9867 165.056 65.784C165.44 65.5813 165.76 65.3173 166.016 64.992ZM171.871 67.208C171.135 67.208 170.463 67.0187 169.855 66.64C169.252 66.2613 168.769 65.7547 168.407 65.12C168.049 64.48 167.871 63.7733 167.871 63C167.871 62.4133 167.975 61.8667 168.183 61.36C168.391 60.848 168.676 60.4 169.039 60.016C169.407 59.6267 169.833 59.3227 170.319 59.104C170.804 58.8853 171.321 58.776 171.871 58.776C172.607 58.776 173.276 58.9653 173.879 59.344C174.487 59.7227 174.969 60.232 175.327 60.872C175.689 61.512 175.871 62.2213 175.871 63C175.871 63.5813 175.767 64.1253 175.559 64.632C175.351 65.1387 175.063 65.5867 174.695 65.976C174.332 66.36 173.908 66.6613 173.423 66.88C172.943 67.0987 172.425 67.208 171.871 67.208ZM171.871 66.088C172.415 66.088 172.903 65.9467 173.335 65.664C173.772 65.376 174.116 64.9973 174.367 64.528C174.623 64.0587 174.751 63.5493 174.751 63C174.751 62.44 174.623 61.9253 174.367 61.456C174.111 60.9813 173.764 60.6027 173.327 60.32C172.895 60.0373 172.409 59.896 171.871 59.896C171.327 59.896 170.836 60.04 170.399 60.328C169.967 60.6107 169.623 60.9867 169.367 61.456C169.116 61.9253 168.991 62.44 168.991 63C168.991 63.576 169.121 64.0987 169.383 64.568C169.644 65.032 169.993 65.4027 170.431 65.68C170.868 65.952 171.348 66.088 171.871 66.088ZM179.713 67.152C179.276 67.1413 178.849 67.0613 178.433 66.912C178.017 66.7627 177.655 66.56 177.345 66.304C177.036 66.048 176.815 65.7573 176.681 65.432L177.649 65.016C177.735 65.224 177.892 65.416 178.121 65.592C178.356 65.7627 178.623 65.9013 178.921 66.008C179.22 66.1093 179.516 66.16 179.809 66.16C180.135 66.16 180.439 66.1067 180.721 66C181.004 65.8933 181.233 65.7413 181.409 65.544C181.591 65.3413 181.681 65.104 181.681 64.832C181.681 64.5387 181.585 64.3093 181.393 64.144C181.201 63.9733 180.959 63.84 180.665 63.744C180.372 63.6427 180.071 63.5467 179.761 63.456C179.196 63.3013 178.697 63.1307 178.265 62.944C177.833 62.7573 177.495 62.52 177.249 62.232C177.009 61.9387 176.889 61.5627 176.889 61.104C176.889 60.6187 177.025 60.2 177.297 59.848C177.575 59.4907 177.935 59.216 178.377 59.024C178.825 58.8267 179.303 58.728 179.809 58.728C180.46 58.728 181.052 58.8693 181.585 59.152C182.124 59.4347 182.513 59.8107 182.753 60.28L181.849 60.816C181.753 60.5973 181.601 60.408 181.393 60.248C181.185 60.088 180.948 59.9627 180.681 59.872C180.42 59.7813 180.153 59.7333 179.881 59.728C179.54 59.7227 179.223 59.7733 178.929 59.88C178.636 59.9813 178.399 60.1333 178.217 60.336C178.041 60.5387 177.953 60.7867 177.953 61.08C177.953 61.3733 178.041 61.5973 178.217 61.752C178.393 61.9013 178.631 62.024 178.929 62.12C179.233 62.2107 179.575 62.3173 179.953 62.44C180.439 62.5947 180.895 62.7707 181.321 62.968C181.748 63.1653 182.092 63.4107 182.353 63.704C182.615 63.9973 182.743 64.368 182.737 64.816C182.737 65.296 182.593 65.7147 182.305 66.072C182.017 66.4293 181.644 66.704 181.185 66.896C180.727 67.0827 180.236 67.168 179.713 67.152ZM188.204 60.12H186.292L186.284 67H185.164L185.172 60.12H183.724V59H185.172L185.164 56.488H186.284L186.292 59H188.204V60.12ZM192.041 67.152C191.604 67.1413 191.177 67.0613 190.761 66.912C190.345 66.7627 189.983 66.56 189.673 66.304C189.364 66.048 189.143 65.7573 189.009 65.432L189.977 65.016C190.063 65.224 190.22 65.416 190.449 65.592C190.684 65.7627 190.951 65.9013 191.249 66.008C191.548 66.1093 191.844 66.16 192.137 66.16C192.463 66.16 192.767 66.1067 193.049 66C193.332 65.8933 193.561 65.7413 193.737 65.544C193.919 65.3413 194.009 65.104 194.009 64.832C194.009 64.5387 193.913 64.3093 193.721 64.144C193.529 63.9733 193.287 63.84 192.993 63.744C192.7 63.6427 192.399 63.5467 192.089 63.456C191.524 63.3013 191.025 63.1307 190.593 62.944C190.161 62.7573 189.823 62.52 189.577 62.232C189.337 61.9387 189.217 61.5627 189.217 61.104C189.217 60.6187 189.353 60.2 189.625 59.848C189.903 59.4907 190.263 59.216 190.705 59.024C191.153 58.8267 191.631 58.728 192.137 58.728C192.788 58.728 193.38 58.8693 193.913 59.152C194.452 59.4347 194.841 59.8107 195.081 60.28L194.177 60.816C194.081 60.5973 193.929 60.408 193.721 60.248C193.513 60.088 193.276 59.9627 193.009 59.872C192.748 59.7813 192.481 59.7333 192.209 59.728C191.868 59.7227 191.551 59.7733 191.257 59.88C190.964 59.9813 190.727 60.1333 190.545 60.336C190.369 60.5387 190.281 60.7867 190.281 61.08C190.281 61.3733 190.369 61.5973 190.545 61.752C190.721 61.9013 190.959 62.024 191.257 62.12C191.561 62.2107 191.903 62.3173 192.281 62.44C192.767 62.5947 193.223 62.7707 193.649 62.968C194.076 63.1653 194.42 63.4107 194.681 63.704C194.943 63.9973 195.071 64.368 195.065 64.816C195.065 65.296 194.921 65.7147 194.633 66.072C194.345 66.4293 193.972 66.704 193.513 66.896C193.055 67.0827 192.564 67.168 192.041 67.152Z" fill="#14134F"/>
<path d="M32.03 284.182C31.7127 284.182 31.4023 284.128 31.099 284.021C30.8003 283.918 30.5273 283.76 30.28 283.545L30.903 282.789C31.0523 282.915 31.2227 283.015 31.414 283.09C31.6053 283.165 31.8107 283.202 32.03 283.202C32.3567 283.202 32.653 283.116 32.919 282.943C33.185 282.766 33.3973 282.537 33.556 282.257C33.7193 281.972 33.801 281.669 33.801 281.347V274.2H34.781V281.347C34.781 281.851 34.6573 282.318 34.41 282.747C34.1627 283.176 33.8313 283.524 33.416 283.79C33.0007 284.051 32.5387 284.182 32.03 284.182ZM42.2131 277H43.1931V284H42.2131L42.1781 282.698C41.9495 283.141 41.6298 283.501 41.2191 283.776C40.8085 284.047 40.3185 284.182 39.7491 284.182C39.2358 284.182 38.7551 284.086 38.3071 283.895C37.8591 283.699 37.4648 283.431 37.1241 283.09C36.7835 282.749 36.5175 282.355 36.3261 281.907C36.1348 281.459 36.0391 280.978 36.0391 280.465C36.0391 279.961 36.1325 279.487 36.3191 279.044C36.5105 278.601 36.7718 278.211 37.1031 277.875C37.4391 277.539 37.8265 277.278 38.2651 277.091C38.7085 276.9 39.1821 276.804 39.6861 276.804C40.2695 276.804 40.7781 276.944 41.2121 277.224C41.6461 277.499 41.9915 277.861 42.2481 278.309L42.2131 277ZM39.7281 283.23C40.2275 283.23 40.6568 283.109 41.0161 282.866C41.3755 282.619 41.6508 282.287 41.8421 281.872C42.0381 281.457 42.1361 280.999 42.1361 280.5C42.1361 279.987 42.0381 279.525 41.8421 279.114C41.6461 278.699 41.3685 278.37 41.0091 278.127C40.6498 277.884 40.2228 277.763 39.7281 277.763C39.2335 277.763 38.7808 277.887 38.3701 278.134C37.9641 278.377 37.6398 278.706 37.3971 279.121C37.1591 279.536 37.0401 279.996 37.0401 280.5C37.0401 281.009 37.1638 281.471 37.4111 281.886C37.6585 282.297 37.9851 282.623 38.3911 282.866C38.8018 283.109 39.2475 283.23 39.7281 283.23ZM50.6979 279.667V284H49.7179V279.863C49.7179 279.48 49.6246 279.133 49.4379 278.82C49.2512 278.507 49.0016 278.258 48.6889 278.071C48.3762 277.884 48.0286 277.791 47.6459 277.791C47.2679 277.791 46.9202 277.884 46.6029 278.071C46.2902 278.258 46.0406 278.507 45.8539 278.82C45.6672 279.133 45.5739 279.48 45.5739 279.863V284H44.5939V277H45.5739V277.966C45.8212 277.611 46.1432 277.329 46.5399 277.119C46.9366 276.909 47.3682 276.804 47.8349 276.804C48.3622 276.804 48.8429 276.932 49.2769 277.189C49.7109 277.446 50.0562 277.791 50.3129 278.225C50.5696 278.659 50.6979 279.14 50.6979 279.667Z" fill="#14134F" fill-opacity="0.5"/>
</svg>
